<?xml version="1.0" standalone="no"?>
<!DOCTYPE svg PUBLIC "-//W3C//DTD SVG 1.1//EN" "http://www.w3.org/Graphics/SVG/1.1/DTD/svg11.dtd" >
<svg xmlns="http://www.w3.org/2000/svg">
<metadata></metadata>
<defs>
<font id="playregular" horiz-adv-x="1187" >
<font-face units-per-em="2048" ascent="1638" descent="-410" />
<missing-glyph horiz-adv-x="471" />
<glyph horiz-adv-x="0" />
<glyph unicode="&#xd;" horiz-adv-x="681" />
<glyph unicode=" "  horiz-adv-x="471" />
<glyph unicode="&#x09;" horiz-adv-x="471" />
<glyph unicode="&#xa0;" horiz-adv-x="471" />
<glyph unicode="!" horiz-adv-x="573" d="M164 1329h246l-72 -962h-102zM168 0v221h238v-221h-238z" />
<glyph unicode="&#x22;" horiz-adv-x="907" d="M174 879v450h176v-450h-176zM557 879v450h176v-450h-176z" />
<glyph unicode="#" d="M123 408v127h225l53 260h-278v127h303l76 387h135l-76 -387h172l76 387h135l-76 -387h197v-127h-223l-51 -260h274v-127h-299l-80 -408h-135l80 408h-172l-80 -408h-135l80 408h-201zM483 535h172l54 260h-174z" />
<glyph unicode="$" d="M123 913v86q0 143 91 219t327 89v145h116v-143q135 0 330 -23v-145q-252 29 -330 30v-430h62q207 0 280.5 -74.5t73.5 -236.5v-76q0 -190 -103.5 -274t-312.5 -96v-271h-116v267q-150 0 -391 32v162q2 0 73.5 -14.5t99 -17.5t92 -9t126.5 -6v467h-60q-201 0 -279.5 81 t-78.5 238zM315 874q0 -70 50.5 -101.5t175.5 -31.5v428q-135 -8 -180.5 -46t-45.5 -117v-132zM657 131q106 6 164 41t58 115v151q0 84 -48.5 120t-173.5 36v-463z" />
<glyph unicode="%" horiz-adv-x="1751" d="M94 844v256q0 137 87 183t236.5 46t235.5 -46t86 -183v-256q0 -68 -25.5 -111t-75.5 -61.5t-98 -24.5t-122 -6t-122 6t-99.5 24.5t-77 61.5t-25.5 111zM254 852q0 -66 39 -85t125 -19t124 19t38 85v256q0 74 -38 94.5t-124 20.5q-88 0 -126 -20.5t-38 -94.5v-256z M473 -20l664 1372h157l-663 -1372h-158zM1012 182v256q0 137 87 183.5t236.5 46.5t235.5 -46.5t86 -183.5v-256q0 -68 -25.5 -110.5t-76 -61t-98.5 -24.5t-121.5 -6t-122 6t-99.5 24.5t-76.5 61.5t-25.5 110zM1171 190q0 -66 39 -85t125 -19t124 19t38 85v256q0 74 -38 94.5 t-124 20.5q-88 0 -126 -20.5t-38 -94.5v-256z" />
<glyph unicode="&#x26;" horiz-adv-x="1302" d="M123 215v223q0 156 188 240l97 45l-80 94q-63 74 -64 141v199q0 195 340 195q137 0 279 -31v-150q-154 51 -283 52q-88 0 -125 -18.5t-37 -63.5v-152q0 -31 21 -55l495 -600q6 37 7 86v196h155v-188q0 -139 -43 -229q82 -78 123 -78h53v-121h-131q-70 0 -149 70 q-129 -90 -400 -90q-446 0 -446 235zM315 207q0 -100 269 -101h22q199 0 271 58l-396 471l-71 -31q-43 -20 -69 -62t-26 -85v-250z" />
<glyph unicode="'" horiz-adv-x="524" d="M174 879v450h176v-450h-176z" />
<glyph unicode="(" horiz-adv-x="677" d="M162 565q0 217 76.5 410.5t220.5 415.5h166q-135 -236 -210 -430.5t-75 -395.5q0 -203 76 -401.5t209 -423.5h-166q-297 442 -297 825z" />
<glyph unicode=")" horiz-adv-x="677" d="M53 -260q133 225 209 423.5t76 401.5q0 199 -75 391.5t-210 434.5h166q143 -221 220 -415t77 -411q0 -383 -297 -825h-166z" />
<glyph unicode="*" horiz-adv-x="815" d="M53 1016l47 141l265 -110l-27 282h149l-26 -282l256 110l45 -141l-275 -60l187 -217l-125 -84l-141 244l-144 -244l-123 84l193 217z" />
<glyph unicode="+" horiz-adv-x="1024" d="M123 578v137h319v340h138v-340h321v-137h-321v-342h-138v342h-319z" />
<glyph unicode="," horiz-adv-x="524" d="M80 -229l94 450h217l-192 -450h-119z" />
<glyph unicode="-" horiz-adv-x="733" d="M82 512v147h569v-147h-569z" />
<glyph unicode="." horiz-adv-x="524" d="M143 0v221h238v-221h-238z" />
<glyph unicode="/" horiz-adv-x="862" d="M20 -20l664 1372h158l-664 -1372h-158z" />
<glyph unicode="0" d="M125 319v672q0 96 27.5 165t68.5 106.5t108.5 58t124 26t138.5 5.5q84 0 141.5 -5.5t125 -26t108.5 -57t68.5 -105.5t27.5 -165v-674q0 -88 -27.5 -152.5t-69.5 -100t-107.5 -56t-125 -25.5t-141.5 -5q-84 0 -142.5 5t-125 24.5t-106.5 55t-66.5 100t-26.5 154.5z M311 309q0 -133 65.5 -171t219.5 -38t217.5 38t63.5 171v697q0 145 -64.5 185t-218.5 40q-158 0 -220.5 -40t-62.5 -185v-697z" />
<glyph unicode="1" d="M250 881v168l405 280h176v-1329h-178v1145z" />
<glyph unicode="2" d="M147 0v238q0 59 20.5 109t48.5 83t81 66.5t89 52t103 47.5l222 98q131 59 131 178v183q0 96 -60.5 126.5t-197.5 30.5q-141 0 -389 -43v144q213 39 428 39q219 0 318 -65.5t99 -223.5v-217q0 -111 -57 -168t-205 -125l-307 -141q-135 -61 -135 -181v-88h704v-143h-893z " />
<glyph unicode="3" d="M158 18v148q248 -51 407 -51q272 0 273 153v228q0 43 -23.5 70.5t-68 38.5t-79 14.5t-83.5 3.5h-256v127h221q49 0 83 3t79 14t69.5 40t24.5 74v237q0 104 -246 105q-158 0 -375 -33v141q176 18 373 19q221 0 327.5 -48.5t106.5 -173.5v-256q0 -68 -53 -107.5t-129 -51.5 v-8q47 -8 80 -17.5t68.5 -28t54 -51.5t18.5 -78v-266q0 -74 -31.5 -128t-76.5 -83.5t-115 -47t-128 -21.5t-134 -4q-166 0 -387 38z" />
<glyph unicode="4" d="M106 291v162l603 876h229v-897h143v-141h-143v-291h-170v291h-662zM270 432h498v735z" />
<glyph unicode="5" d="M178 16v148q238 -49 397 -49q121 0 181.5 34.5t60.5 118.5v264q0 43 -18.5 71t-55 39t-66.5 14t-75 3h-393v670h766v-139h-582v-404h307q76 0 140.5 -17t117 -68.5t52.5 -133.5v-303q0 -74 -27 -128t-68 -83.5t-103 -47t-116.5 -21.5t-126.5 -4q-166 0 -391 36z" />
<glyph unicode="6" d="M145 319v672q0 96 31 165t76 106.5t117.5 58t132 26t141.5 5.5q125 0 336 -19v-139q-217 27 -363 27q-160 0 -224 -40t-64 -186v-209h301q96 0 149 -3t112.5 -17t87.5 -43t46 -80t18 -129v-195q0 -111 -34.5 -182t-104 -104t-139.5 -43t-172 -10q-84 0 -140.5 5 t-120 24.5t-100 55t-61.5 100t-25 154.5zM328 309q0 -133 58 -171t210 -38t208 37t56 172v199q0 98 -50 129t-216 31h-266v-359z" />
<glyph unicode="7" d="M127 1196v133h934v-133l-508 -1196h-197l533 1196h-762z" />
<glyph unicode="8" d="M121 240v247q0 84 65.5 137.5t163.5 75.5v9q-90 20 -137 64t-47 126v207q0 57 17.5 98t62.5 77t131 53.5t215 17.5t215 -17.5t131 -53.5t62.5 -77t17.5 -98v-207q0 -82 -46 -126t-136 -64v-9q98 -23 163.5 -76t65.5 -137v-243q0 -145 -111.5 -204.5t-361.5 -59.5 q-248 0 -359.5 59t-111.5 201zM319 233q0 -74 61.5 -104.5t211 -30.5t211 30.5t61.5 104.5v248q0 51 -21.5 84t-67.5 46.5t-83 16.5t-100.5 3t-100 -3t-83 -16.5t-68 -46.5t-21.5 -84v-248zM352 881q0 -80 53.5 -108t186.5 -28t186 28t53 108v215q0 76 -55 106.5t-184 30.5 t-184.5 -31t-55.5 -106v-215z" />
<glyph unicode="9" d="M145 815v197q0 111 35 182.5t104.5 104t139.5 43t172 10.5q84 0 140.5 -5.5t120 -24.5t100 -55t61 -100.5t24.5 -154.5v-672q0 -197 -115.5 -278.5t-371.5 -81.5q-174 0 -346 22v137q190 -35 340 -35q176 0 243.5 56.5t67.5 208.5v174h-301q-96 0 -149.5 3t-112.5 17.5 t-87 43t-46.5 79.5t-18.5 129zM328 821q0 -98 50 -128.5t216 -30.5h266v360q0 133 -58.5 171t-210 38t-207.5 -37t-56 -172v-201z" />
<glyph unicode=":" horiz-adv-x="524" d="M143 0v221h238v-221h-238zM143 770v221h238v-221h-238z" />
<glyph unicode=";" horiz-adv-x="524" d="M80 -229l94 450h217l-192 -450h-119zM143 770v221h238v-221h-238z" />
<glyph unicode="&#x3c;" horiz-adv-x="1024" d="M123 563v148l778 436v-166l-618 -350l618 -338v-166z" />
<glyph unicode="=" horiz-adv-x="1024" d="M123 414v137h778v-137h-778zM123 741v138h778v-138h-778z" />
<glyph unicode="&#x3e;" horiz-adv-x="1024" d="M123 127v166l618 338l-618 350v166l778 -436v-148z" />
<glyph unicode="?" horiz-adv-x="1091" d="M123 1161v150q215 39 430 39q219 0 317.5 -65.5t98.5 -223.5v-103q0 -78 -28 -138t-69 -96t-90 -71t-90 -60.5t-68.5 -65.5t-27.5 -89v-88h-172v49q0 111 36 185.5t87 113.5t102 73t87 86t36 128v62q0 96 -61.5 126.5t-196.5 30.5q-143 0 -391 -43zM389 0v221h238v-221 h-238z" />
<glyph unicode="@" horiz-adv-x="1509" d="M123 176v629q0 117 61.5 197.5t165 117.5t196.5 51.5t195 14.5q109 0 205 -13.5t203.5 -50.5t172 -117.5t64.5 -197.5v-510q0 -100 -51 -141t-151 -41h-64q-70 0 -116 21.5t-56 53.5q-20 -45 -63 -60t-170 -15q-166 0 -235.5 56t-69.5 235v225q0 152 73.5 210t272.5 58 q201 0 263 -58.5t62 -209.5v-367q0 -29 18.5 -39t61.5 -10t59.5 9t16.5 40v567q0 74 -50 126.5t-131 76t-157 33.5t-155.5 10t-151.5 -10t-146.5 -33.5t-118.5 -76t-44 -126.5v-669q0 -68 45 -116t120.5 -71.5t147.5 -33t149 -9.5q117 0 273 19.5t211 34.5v-119 q-51 -16 -198.5 -33.5t-289.5 -17.5q-84 0 -159.5 7t-162.5 30.5t-149.5 61.5t-104.5 105.5t-42 155.5zM569 377q0 -104 32 -131t148.5 -27t149.5 29t33 129v246q0 117 -30 143.5t-152 26.5q-119 0 -150 -28t-31 -142v-246z" />
<glyph unicode="A" horiz-adv-x="1335" d="M31 0l528 1329h229l517 -1329h-207l-152 403h-569l-150 -403h-196zM428 541h469l-225 600h-19z" />
<glyph unicode="B" horiz-adv-x="1255" d="M172 0v1329h475q172 0 269.5 -34.5t127 -86t29.5 -131.5v-178q0 -82 -46 -125t-136 -63v-9q106 -18 174 -73.5t68 -141.5v-223q0 -145 -111 -204.5t-360 -59.5h-490zM371 137h291q150 0 211 30.5t61 104.5v201q0 53 -21.5 85t-67.5 45t-82 16.5t-101 3.5h-291v-486z M371 748h282q127 0 180.5 37.5t53.5 119.5v156q0 76 -55.5 106.5t-184.5 30.5h-276v-450z" />
<glyph unicode="C" horiz-adv-x="1155" d="M131 340v631q0 381 559 381q186 0 365 -39v-148q-197 49 -361 49q-78 0 -137 -9t-116.5 -32.5t-88 -73.5t-30.5 -126v-623q0 -229 380 -229q164 0 361 49v-152q-174 -38 -363 -38h-10q-559 0 -559 360z" />
<glyph unicode="D" horiz-adv-x="1390" d="M172 0v1329h528q560 0 560 -381v-588q0 -360 -558 -360h-530zM371 135h317q381 1 381 230v585q0 76 -30.5 126t-87 74t-116 33t-137.5 9h-327v-1057z" />
<glyph unicode="E" d="M172 0v1329h893v-139h-694v-434h626v-140h-626v-477h714v-139h-913z" />
<glyph unicode="F" horiz-adv-x="1146" d="M172 0v1329h913v-139h-714v-434h647v-140h-647v-616h-199z" />
<glyph unicode="G" horiz-adv-x="1363" d="M131 340v629q0 117 60.5 197.5t163 117.5t194.5 51.5t194 14.5q246 0 459 -33v-154q-78 18 -223 33.5t-231 15.5q-420 0 -420 -241v-627q0 -68 40 -116t108.5 -71.5t135 -32.5t144.5 -9q137 0 293 37v464h-312v140h496v-715q-266 -61 -490 -61q-84 0 -158.5 7 t-160.5 30.5t-148.5 61.5t-103.5 105.5t-41 155.5z" />
<glyph unicode="H" horiz-adv-x="1447" d="M172 0v1329h199v-573h706v573h199v-1329h-199v616h-706v-616h-199z" />
<glyph unicode="I" horiz-adv-x="542" d="M172 0v1329h199v-1329h-199z" />
<glyph unicode="J" horiz-adv-x="825" d="M41 2v133q125 -33 219 -33q115 0 155 34t40 149v1044h198v-1036q0 -190 -85 -251.5t-283 -61.5q-168 0 -244 22z" />
<glyph unicode="K" horiz-adv-x="1247" d="M172 0v1329h199v-1329h-199zM375 707l594 622h239l-598 -614l658 -715h-258z" />
<glyph unicode="L" horiz-adv-x="1064" d="M172 0v1329h199v-1190h653v-139h-852z" />
<glyph unicode="M" horiz-adv-x="1763" d="M172 0v1329h297l426 -1106l6 -2l404 1108h286v-1329h-174v1124h-10l-428 -1124h-178l-441 1124h-10v-1124h-178z" />
<glyph unicode="N" horiz-adv-x="1480" d="M172 0v1329h240l723 -1098v1098h174v-1329h-240l-723 1116v-1116h-174z" />
<glyph unicode="O" horiz-adv-x="1390" d="M135 340v629q0 381 557 381q563 0 563 -379v-631q0 -109 -52 -184.5t-142 -111.5t-178 -50t-191 -14q-557 0 -557 360zM326 342q0 -229 370 -229q367 0 367 229v633q0 246 -369 246q-78 0 -137 -9.5t-114.5 -35t-86 -75.5t-30.5 -126v-633z" />
<glyph unicode="P" horiz-adv-x="1167" d="M172 0v1329h434q82 0 141.5 -4t126 -19.5t106.5 -43t67.5 -76.5t27.5 -119v-276q0 -170 -132 -241t-374 -71h-198v-479h-199zM369 604h227q119 0 202 44t83 153v241q0 55 -29 91t-82 50.5t-89 17.5t-89 3h-223v-600z" />
<glyph unicode="Q" horiz-adv-x="1384" d="M131 360v609q0 381 559 381q561 0 561 -379v-549q0 -190 -182 -309h328v-113h-707q-559 0 -559 360zM322 362q0 -229 372 -229q367 0 367 229v613q0 246 -369 246q-78 0 -138 -9.5t-115.5 -35t-86 -75.5t-30.5 -126v-613z" />
<glyph unicode="R" horiz-adv-x="1253" d="M172 0v1329h467q250 0 358.5 -50t108.5 -210v-229q0 -123 -100.5 -185.5t-243.5 -62.5l426 -592h-244l-381 567h-192v-567h-199zM371 698h260q141 0 208.5 35t67.5 131v185q0 149 -255 149h-3h-278v-500z" />
<glyph unicode="S" horiz-adv-x="1165" d="M123 934v106q0 158 111.5 234t410.5 76q143 0 342 -23v-149q-221 34 -349 34h-7q-190 0 -253 -37.5t-63 -127.5v-152q0 -70 49.5 -101.5t174.5 -31.5h159q207 0 281 -74.5t74 -236.5v-97q0 -213 -121 -293.5t-377 -80.5q-164 0 -405 32v166q242 -51 417 -51 q141 0 216 31.5t75 128.5v172q0 84 -48 119.5t-173 35.5h-156q-201 0 -279.5 81t-78.5 239z" />
<glyph unicode="T" horiz-adv-x="1198" d="M49 1190v139h1100v-139h-449v-1190h-200v1190h-451z" />
<glyph unicode="U" horiz-adv-x="1384" d="M172 340v989h190v-987q0 -131 88.5 -180t244 -49t240.5 49t85 180v987h190v-989q0 -360 -520 -360q-104 0 -186 13t-162 49t-125 111.5t-45 186.5z" />
<glyph unicode="V" horiz-adv-x="1335" d="M31 1329h207l426 -1141h18l426 1141h197l-529 -1329h-229z" />
<glyph unicode="W" horiz-adv-x="1982" d="M16 1329h211l330 -1141h4l330 1141h211l330 -1141h4l329 1141h201l-428 -1329h-231l-318 1106l-325 -1106h-232z" />
<glyph unicode="X" horiz-adv-x="1236" d="M16 0l490 678l-469 651h227l354 -514l355 514h227l-469 -651l490 -678h-228l-375 541l-374 -541h-228z" />
<glyph unicode="Y" horiz-adv-x="1196" d="M16 1329h228l354 -624l354 624h228l-484 -786v-543h-198v537z" />
<glyph unicode="Z" d="M82 0v139l782 1051h-762v139h992v-139l-783 -1051h795v-139h-1024z" />
<glyph unicode="[" horiz-adv-x="675" d="M172 -389v1896h463v-98h-285v-1700h285v-98h-463z" />
<glyph unicode="\" horiz-adv-x="862" d="M20 1350h158l664 -1370h-158z" />
<glyph unicode="]" horiz-adv-x="675" d="M41 -291h285v1700h-285v98h463v-1896h-463v98z" />
<glyph unicode="^" horiz-adv-x="657" d="M41 928l156 465h260l159 -465h-139l-149 383l-148 -383h-139z" />
<glyph unicode="_" d="M145 -143h897v-146h-897v146z" />
<glyph unicode="`" horiz-adv-x="489" d="M41 1393h223l185 -260h-152z" />
<glyph unicode="a" horiz-adv-x="1101" d="M102 295q0 166 74 228.5t285 62.5h297v157q0 82 -50.5 111t-189.5 29q-152 0 -340 -25v135q203 18 367 19q250 0 323.5 -60.5t73.5 -251.5v-700h-178v94q-23 -114 -294 -114h-5q-205 0 -284 62t-79 253zM283 289q0 -104 33.5 -146.5t142.5 -42.5h37q53 0 89 2t81 11.5 t68.5 31t23.5 56.5v270h-285q-127 0 -158.5 -32.5t-31.5 -149.5z" />
<glyph unicode="b" horiz-adv-x="1185" d="M160 324v1110h184v-297q0 -39 -1 -118t-1 -118q8 47 85 79t226 32q410 0 410 -281v-407q0 -90 -26.5 -156t-66.5 -101.5t-105.5 -56t-123 -25.5t-139.5 -5q-106 0 -174 10t-135.5 43t-100 105.5t-32.5 185.5zM344 297q0 -125 56.5 -161t205.5 -36q152 0 210 36t58 161 v389q0 127 -59 161t-211 34q-145 0 -202.5 -39t-57.5 -156v-389z" />
<glyph unicode="c" horiz-adv-x="950" d="M123 303v365q0 82 15.5 141t48 96t67.5 59.5t95.5 32t106.5 12.5t124 3q141 0 282 -31v-135q-160 41 -305 41q-154 0 -200 -37t-46 -156v-405q0 -109 52.5 -144.5t214.5 -35.5q145 0 299 38v-139q-130 -28 -306 -28h-12q-90 0 -140 3t-114.5 20t-98.5 50t-58.5 95.5 t-24.5 154.5z" />
<glyph unicode="d" horiz-adv-x="1169" d="M123 295v436q0 150 92 215.5t309 65.5q117 0 216.5 -31t101.5 -96h4q-4 168 -4 252v297h184v-1434h-180v117q0 -53 -89 -95t-243 -42q-215 0 -303 67.5t-88 247.5zM305 260q0 -84 56.5 -119t191.5 -35q152 0 220.5 35t68.5 119v490q0 133 -273 133q-164 0 -214 -24.5 t-50 -108.5v-490z" />
<glyph unicode="e" horiz-adv-x="1095" d="M123 283v391q0 182 104.5 260t333.5 78q215 0 314.5 -75t99.5 -263v-219h-666v-150q0 -104 74 -148t219 -44q141 0 334 49v-142q-180 -40 -350 -40h-8q-455 0 -455 303zM309 575h482v156q0 90 -55.5 124t-184.5 34q-123 0 -182.5 -33t-59.5 -125v-156z" />
<glyph unicode="f" horiz-adv-x="778" d="M20 870v121h228v160q0 168 94 235.5t274 67.5q80 0 166 -10v-121q-72 10 -159 10q-100 0 -145.5 -34.5t-45.5 -135.5v-172h330v-121h-330v-870h-184v870h-228z" />
<glyph unicode="g" horiz-adv-x="1165" d="M123 281v403q0 176 95 252t312 76q258 0 304 -117v96h172v-1085q0 -211 -118 -284t-353 -73q-211 0 -342 23v131q236 -29 358 -29q141 0 205.5 45t64.5 150v237q-4 -70 -95 -98t-208 -28q-229 0 -312 67.5t-83 233.5zM305 268q0 -102 50.5 -134t201.5 -32q139 0 201.5 34 t62.5 132v449q0 96 -52 132t-216 36q-154 0 -201 -35t-47 -133v-449z" />
<glyph unicode="h" horiz-adv-x="1173" d="M160 0v1434h184v-564q29 141 326 142q197 0 270.5 -71t73.5 -214v-727h-185v715q0 37 -6 61.5t-25.5 50t-65.5 39t-116 13.5q-170 0 -221 -37t-51 -127v-715h-184z" />
<glyph unicode="i" horiz-adv-x="503" d="M160 0v991h184v-991h-184zM160 1157v193h184v-193h-184z" />
<glyph unicode="j" horiz-adv-x="505" d="M-88 -322q49 -8 78 -8q86 0 129 34t43 132v1155h184v-1141q0 -170 -80 -235.5t-250 -65.5q-51 0 -104 9v120zM162 1157v193h184v-193h-184z" />
<glyph unicode="k" horiz-adv-x="1052" d="M160 0v1434h184v-1434h-184zM367 543l417 448h226l-430 -448l469 -543h-230z" />
<glyph unicode="l" horiz-adv-x="503" d="M160 0v1434h184v-1434h-184z" />
<glyph unicode="m" horiz-adv-x="1822" d="M160 0v991h184v-121q29 141 334 142q248 0 309 -135q20 70 115.5 102.5t224.5 32.5q190 0 263 -71t73 -214v-727h-184v715q0 37 -6.5 61.5t-26 50t-65.5 39t-115 13.5q-162 0 -208 -35t-46 -129v-715h-185v715q0 37 -6 61.5t-25.5 50t-64.5 39t-115 13.5q-164 0 -218 -34 t-54 -130v-715h-184z" />
<glyph unicode="n" horiz-adv-x="1173" d="M160 0v991h184v-121q29 141 326 142q197 0 270.5 -71t73.5 -214v-727h-185v717q0 37 -6 61.5t-25.5 50t-65.5 39t-116 13.5q-162 0 -217 -35t-55 -129v-717h-184z" />
<glyph unicode="o" horiz-adv-x="1163" d="M123 313v344q0 98 23.5 166t57.5 105t99.5 56.5t121.5 23.5t154.5 4t155 -4t122 -23.5t99 -56.5t57 -105t23.5 -166v-344q0 -92 -22.5 -155.5t-57 -98t-99 -53t-123 -22.5t-154.5 -4q-123 0 -192 8t-137.5 39.5t-98 101.5t-29.5 184zM311 287q0 -66 14.5 -105t53.5 -56 t80 -21.5t120.5 -4.5t120.5 4.5t80 21.5t53.5 56t14.5 105v401q0 137 -55.5 170t-213 33t-213 -33t-55.5 -170v-401z" />
<glyph unicode="p" horiz-adv-x="1185" d="M160 -426v1417h182v-106h2q23 127 338 127q199 0 290 -83t91 -198v-407q0 -90 -26.5 -156t-66.5 -101.5t-105.5 -56t-123 -25.5t-139.5 -5t-159.5 20t-98.5 63v-489h-184zM344 301q0 -125 56.5 -161t205.5 -36q152 0 210 36t58 161v365q0 137 -59 175t-210.5 38t-206 -37 t-54.5 -176v-365z" />
<glyph unicode="q" horiz-adv-x="1185" d="M160 324v366q0 170 106.5 246t358.5 76q240 0 339 -75t99 -247v-1116h-184v489q-41 -83 -293 -83h-6q-88 0 -144.5 5t-114 25.5t-89 57t-52 100t-20.5 156.5zM348 303q0 -125 58.5 -161t209.5 -36q156 0 209.5 38t53.5 159v363q0 139 -54.5 176t-206.5 37 q-182 0 -226 -37t-44 -176v-363z" />
<glyph unicode="r" horiz-adv-x="718" d="M160 0v991h174v-162q0 72 89 127.5t181 55.5h90v-158h-102q-127 0 -187.5 -33t-60.5 -123v-698h-184z" />
<glyph unicode="s" horiz-adv-x="989" d="M102 686v92q0 233 443 234q49 0 301 -17v-133q-176 29 -309 29q-147 0 -199.5 -28.5t-52.5 -96.5v-84q0 -100 182 -100h115q313 -1 313 -234v-86q0 -160 -111.5 -221t-320.5 -61q-160 0 -340 24v141q246 -39 344 -39q123 0 184.5 24t61.5 97v101q0 63 -43 89.5t-140 26.5 h-112q-156 0 -236 64.5t-80 177.5z" />
<glyph unicode="t" horiz-adv-x="823" d="M20 870v121h222v307h186v-307h354v-121h-354v-591q0 -106 41 -142.5t166 -36.5q33 0 147 17v-121q-98 -16 -207 -16q-186 0 -259.5 64.5t-73.5 244.5v581h-222z" />
<glyph unicode="u" horiz-adv-x="1173" d="M160 264v727h184v-717q0 -37 6 -61.5t25.5 -50t65.5 -38.5t116 -13q154 0 213 28.5t59 104.5v747h185v-991h-185v121q-29 -141 -325 -141q-197 0 -270.5 70.5t-73.5 213.5z" />
<glyph unicode="v" horiz-adv-x="948" d="M12 991h195l274 -831h11l266 831h178l-346 -991h-221z" />
<glyph unicode="w" horiz-adv-x="1622" d="M25 991h202l242 -815h12l234 815h207l241 -815h13l233 815h188l-325 -991h-219l-240 801l-235 -801h-220z" />
<glyph unicode="x" horiz-adv-x="980" d="M20 0l369 510l-348 481h203l245 -362l248 362h203l-348 -481l369 -510h-203l-269 391l-266 -391h-203z" />
<glyph unicode="y" horiz-adv-x="942" d="M12 991h201l276 -809h5l249 809h187l-498 -1417h-192l155 412z" />
<glyph unicode="z" horiz-adv-x="929" d="M82 0v125l557 741h-537v125h746v-125l-557 -741h569v-125h-778z" />
<glyph unicode="{" horiz-adv-x="675" d="M131 559v107q90 0 108.5 25.5t18.5 139.5v365q0 66 9 115t21.5 81.5t37 55t44 34t55.5 17.5t57.5 7t64.5 1h39v-98h-21q-51 0 -88 -35t-37 -98v-373q0 -125 -33.5 -189.5t-127.5 -97.5v-8q94 -31 127.5 -95t33.5 -191v-480q0 -63 37 -98t88 -35h21v-98h-39q-43 0 -64.5 1 t-57.5 7t-55.5 17.5t-44 34t-37 55t-21.5 82t-9 114.5v471q0 115 -18.5 140.5t-108.5 25.5z" />
<glyph unicode="|" horiz-adv-x="686" d="M287 -20v1370h112v-1370h-112z" />
<glyph unicode="}" horiz-adv-x="675" d="M90 -291h21q51 0 88 35t37 98v480q0 127 33.5 191.5t127.5 94.5v8q-94 33 -127.5 97.5t-33.5 189.5v373q0 63 -37 98t-88 35h-21v98h39q43 0 64.5 -1t57.5 -7t55.5 -17.5t44 -34t36.5 -55t21.5 -81.5t9.5 -115v-365q0 -115 18.5 -140t108.5 -25v-107q-90 0 -108.5 -25.5 t-18.5 -140.5v-471q0 -66 -9.5 -115t-21.5 -81.5t-36.5 -55t-44 -34t-55.5 -17.5t-57.5 -7t-64.5 -1h-39v98z" />
<glyph unicode="~" d="M139 481v166q76 92 250 92q78 0 222.5 -60.5t193.5 -60.5q166 0 244 127v-165q-74 -94 -252 -95q-66 0 -210.5 60.5t-205.5 60.5q-86 0 -142.5 -29.5t-99.5 -95.5z" />
<glyph unicode="&#xa2;" d="M227 473v365q0 106 27 175.5t83 103.5t115.5 47.5t151.5 15.5v170h117v-170q131 -6 246 -29v-135q-174 41 -305 41q-156 0 -201 -34t-45 -159v-409q0 -111 51 -143.5t215 -32.5q145 0 299 38v-139q-100 -25 -260 -28v-170h-117v170q-90 0 -149.5 11t-115.5 43t-84 98.5 t-28 170.5z" />
<glyph unicode="&#xa3;" d="M156 0v133h227v516h-227v127h227v189q0 123 24.5 199.5t80 117.5t125 54.5t180.5 13.5q121 0 206 -11v-122q-72 10 -139 10h-18q-170 0 -222.5 -46t-52.5 -204v-201h351v-127h-351v-516h531v-133h-942z" />
<glyph unicode="&#xa5;" d="M16 1329h228l352 -620h4l352 620h228l-381 -620h243v-146h-333l-13 -20v-166h346v-146h-346v-231h-198v231h-353v146h353v160l-17 26h-336v146h248z" />
<glyph unicode="&#xa8;" horiz-adv-x="655" d="M61 1157v193h185v-193h-185zM410 1157v193h184v-193h-184z" />
<glyph unicode="&#xa9;" horiz-adv-x="1468" d="M123 340v629q0 117 64.5 197.5t172 117.5t202.5 51.5t200 14.5q82 0 157.5 -7.5t165 -32t152.5 -63.5t106 -110.5t43 -165.5v-631q0 -109 -61 -184.5t-163.5 -111.5t-199 -50t-200.5 -14q-84 0 -162 7t-168 30.5t-155.5 61.5t-109.5 105.5t-44 155.5zM283 336 q0 -68 48 -116t128 -71.5t154.5 -33t152.5 -9.5q72 0 139.5 8.5t145 30t126 70.5t48.5 121v649q0 74 -45 126t-120 75.5t-146.5 34t-149.5 10.5q-80 0 -154.5 -10.5t-153.5 -34t-126 -75.5t-47 -126v-649zM436 539v278q0 125 77 186.5t249 61.5t238.5 -54.5t66.5 -172.5v-56 h-149v39q0 82 -30 105.5t-132 23.5q-96 0 -128 -28.5t-32 -120.5v-246q0 -96 30.5 -122.5t129.5 -26.5q113 0 137.5 21.5t24.5 107.5v40h149v-57q0 -117 -63.5 -172t-241.5 -55q-182 0 -254 52.5t-72 195.5z" />
<glyph unicode="&#xab;" horiz-adv-x="872" d="M82 537l205 393h155l-188 -393l188 -394h-155zM430 537l205 393h156l-189 -393l189 -394h-156z" />
<glyph unicode="&#xad;" horiz-adv-x="733" d="M82 512v147h569v-147h-569z" />
<glyph unicode="&#xae;" horiz-adv-x="1468" d="M123 340v629q0 117 64.5 197.5t172 117.5t202.5 51.5t200 14.5q82 0 157.5 -7.5t165 -32t152.5 -63.5t106 -110.5t43 -165.5v-631q0 -109 -61 -184.5t-163.5 -111.5t-199 -50t-200.5 -14q-84 0 -162 7t-168 30.5t-155.5 61.5t-109.5 105.5t-44 155.5zM283 336 q0 -68 48 -116t128 -71.5t154.5 -33t152.5 -9.5q72 0 139.5 8.5t145 30t126 70.5t48.5 121v649q0 74 -45 126t-120 75.5t-146.5 34t-149.5 10.5q-80 0 -154.5 -10.5t-153.5 -34t-126 -75.5t-47 -126v-649zM494 266v797h280q156 0 218.5 -31t62.5 -125v-153q0 -76 -52.5 -115 t-134.5 -39l236 -334h-168l-207 320h-96v-320h-139zM633 684h137q88 0 115.5 13.5t27.5 66.5v131q0 43 -26.5 56.5t-106.5 13.5h-147v-281z" />
<glyph unicode="&#xb4;" horiz-adv-x="489" d="M41 1133l184 260h224l-256 -260h-152z" />
<glyph unicode="&#xb8;" horiz-adv-x="485" d="M55 -412l43 93q61 -35 119 -35q96 0 96 82q0 39 -45 61.5t-114 22.5h-68q47 79 100 188h129l-53 -106q76 -2 133.5 -42t57.5 -118q0 -90 -70 -137.5t-162 -47.5q-100 0 -166 39z" />
<glyph unicode="&#xbb;" horiz-adv-x="872" d="M82 143l188 394l-188 393h156l204 -393l-204 -394h-156zM430 143l188 394l-188 393h156l205 -393l-205 -394h-156z" />
<glyph unicode="&#x2c6;" horiz-adv-x="657" d="M82 1133l139 260h219l135 -260h-118l-127 178l-129 -178h-119z" />
<glyph unicode="&#x2da;" horiz-adv-x="1101" d="M266 1333v25q0 74 17.5 119t59.5 64.5t82 24.5t114 5q57 0 92 -3t73.5 -14.5t59 -33t35 -62.5t14.5 -100v-25q0 -70 -17.5 -111.5t-59.5 -60t-83 -23.5t-114.5 -5t-113.5 5t-82 23.5t-59.5 60.5t-17.5 111zM395 1319q0 -68 30 -84t114 -16t114.5 16t30.5 84v55 q0 74 -30.5 92.5t-114.5 18.5t-114 -18.5t-30 -92.5v-55z" />
<glyph unicode="&#x2dc;" horiz-adv-x="645" d="M61 1108v149q50 60 134 60q49 0 133 -35t123 -35q45 0 73.5 21.5t59.5 66.5v-141q-47 -80 -133 -80q-53 0 -135.5 37t-120.5 37q-82 0 -134 -80z" />
<glyph unicode="&#x400;" d="M172 0v1329h893v-139h-694v-434h626v-140h-626v-477h714v-139h-913zM389 1731h223l185 -261h-152z" />
<glyph unicode="&#x401;" d="M172 0v1329h893v-139h-694v-434h626v-140h-626v-477h714v-139h-913zM362 1477v192h185v-192h-185zM711 1477v192h184v-192h-184z" />
<glyph unicode="&#x402;" horiz-adv-x="1536" d="M49 1190v139h1100v-139h-449v-524q45 131 326 131q199 0 274.5 -71t75.5 -214q0 -57 -7 -120.5t-15 -113t-29.5 -125t-32 -111.5t-41 -123t-39 -108.5t-45.5 -115t-39 -101.5h-206q2 6 46 109.5t54 132.5t46 121t49 141t33.5 127t28 144.5t7.5 130.5q0 37 -6 61.5 t-25.5 50t-66 39t-115.5 13.5q-164 0 -218.5 -34t-54.5 -114v-516h-200v1190h-451z" />
<glyph unicode="&#x403;" horiz-adv-x="1003" d="M172 0v1329h770v-139h-571v-1190h-199zM422 1440l184 260h223l-256 -260h-151z" />
<glyph unicode="&#x404;" horiz-adv-x="1155" d="M131 340v631q0 381 559 381q186 0 365 -39v-148q-197 49 -361 49q-78 0 -137 -9t-116.5 -32.5t-88 -73.5t-30.5 -126v-219h675v-138h-675v-266q0 -229 380 -229q164 0 361 49v-152q-178 -39 -373 -38q-559 0 -559 360z" />
<glyph unicode="&#x405;" horiz-adv-x="1165" d="M123 934v106q0 158 112.5 234t413.5 76q139 0 338 -23v-149q-227 35 -348 34q-197 0 -260.5 -36.5t-63.5 -128.5v-152q0 -70 49.5 -101.5t174.5 -31.5h159q207 0 281 -74.5t74 -236.5v-97q0 -217 -123 -295.5t-389 -78.5q-150 0 -391 32v166q238 -51 395 -51 q160 0 236.5 30.5t76.5 129.5v172q0 84 -48 119.5t-173 35.5h-156q-201 0 -279.5 81t-78.5 239z" />
<glyph unicode="&#x406;" horiz-adv-x="542" d="M172 0v1329h199v-1329h-199z" />
<glyph unicode="&#x407;" horiz-adv-x="542" d="M4 1485v192h184v-192h-184zM172 0v1329h199v-1329h-199zM352 1485v192h185v-192h-185z" />
<glyph unicode="&#x408;" horiz-adv-x="825" d="M41 2v133q213 -23 219 -22q117 0 156 29.5t39 142.5v1044h198v-1036q0 -188 -84 -245.5t-284 -57.5q-35 0 -244 12z" />
<glyph unicode="&#x409;" horiz-adv-x="2048" d="M33 0v143h47q82 0 117.5 39t35.5 131v1016h1018v-573h199q100 0 169 -5.5t137.5 -21.5t109.5 -45t65.5 -79t24.5 -120v-196q0 -289 -469 -289h-434v1182h-621v-887q0 -152 -67.5 -223.5t-214.5 -71.5h-117zM1249 135h224q53 0 88.5 3t89 17.5t82 50.5t28.5 91v166 q0 94 -62.5 123.5t-221.5 29.5h-228v-481z" />
<glyph unicode="&#x40a;" horiz-adv-x="2048" d="M172 0v1329h199v-573h682v573h198v-573h199q100 0 169 -5.5t137.5 -21.5t109.5 -45t65.5 -79t24.5 -120v-196q0 -289 -469 -289h-434v616h-682v-616h-199zM1251 135h222q53 0 88.5 3t89 17.5t82 50.5t28.5 91v166q0 94 -62.5 123.5t-221.5 29.5h-226v-481z" />
<glyph unicode="&#x40b;" horiz-adv-x="1536" d="M49 1190v139h1100v-139h-449v-524q45 131 326 131q199 0 274.5 -71t75.5 -214v-512h-190v500q0 37 -6 61.5t-25.5 50t-66 39t-115.5 13.5q-164 0 -218.5 -34t-54.5 -114v-516h-200v1190h-451z" />
<glyph unicode="&#x40c;" horiz-adv-x="1228" d="M172 0v1329h201v-575q78 0 114.5 19.5t75.5 80.5l182 285q84 129 136.5 159.5t197.5 30.5h92v-139h-104q-51 0 -91 -34t-87 -112l-129 -213q-39 -68 -77 -101.5t-95 -47.5q76 -18 301 -268l373 -414h-254l-367 414q-117 133 -169 167.5t-99 34.5v-616h-201zM410 1470 l184 261h223l-256 -261h-151z" />
<glyph unicode="&#x40d;" horiz-adv-x="1480" d="M174 0v1329h182v-1098l715 1098h240v-1329h-183v1116l-714 -1116h-240zM436 1731h223l185 -261h-152z" />
<glyph unicode="&#x40e;" horiz-adv-x="1099" d="M12 1329h221l342 -737l312 737h200l-473 -1093q-53 -127 -133 -191.5t-223 -64.5q-78 0 -172 20v143q66 -14 125 -14q88 0 138 40t91 132l41 94zM307 1731h111q12 -139 131 -139.5t131 139.5h111q-4 -119 -68 -190t-174.5 -71t-174 71t-67.5 190z" />
<glyph unicode="&#x40f;" horiz-adv-x="1447" d="M172 0v1329h199v-1192h706v1192h199v-1329h-451v-340h-186v340h-467z" />
<glyph unicode="&#x410;" horiz-adv-x="1335" d="M31 0l528 1329h229l517 -1329h-207l-152 403h-569l-150 -403h-196zM428 541h469l-225 600h-19z" />
<glyph unicode="&#x411;" horiz-adv-x="1167" d="M172 0v1329h729v-141h-530v-432h198q100 0 169 -5.5t137.5 -21.5t109.5 -45t65.5 -79t24.5 -120v-196q0 -289 -469 -289h-434zM369 135h223q53 0 89 3t89 17.5t82 50.5t29 91v166q0 88 -66.5 123t-218.5 35h-227v-486z" />
<glyph unicode="&#x412;" horiz-adv-x="1255" d="M172 0v1329h475q172 0 269.5 -34.5t127 -86t29.5 -131.5v-178q0 -82 -46 -125t-136 -63v-9q106 -18 174 -73.5t68 -141.5v-223q0 -145 -111 -204.5t-360 -59.5h-490zM371 137h291q150 0 211 30.5t61 104.5v201q0 53 -21.5 85t-67.5 45t-82 16.5t-101 3.5h-291v-486z M371 748h282q127 0 180.5 37.5t53.5 119.5v156q0 76 -55.5 106.5t-184.5 30.5h-276v-450z" />
<glyph unicode="&#x413;" horiz-adv-x="1003" d="M172 0v1329h770v-139h-571v-1190h-199z" />
<glyph unicode="&#x414;" horiz-adv-x="1366" d="M41 152h115q92 139 134 355t42 607v215h831v-1177h131v-492h-172v340h-907v-340h-174v492zM354 152h615v1024h-451v-95q0 -291 -47 -548t-117 -381z" />
<glyph unicode="&#x415;" d="M172 0v1329h893v-139h-694v-434h626v-140h-626v-477h714v-139h-913z" />
<glyph unicode="&#x416;" horiz-adv-x="1953" d="M-12 0l372 414q225 250 302 268q-57 14 -95.5 48t-77.5 101l-129 213q-47 78 -87 112t-91 34h-104v139h92q145 0 197.5 -30.5t136.5 -159.5l182 -285q41 -66 72 -83t119 -17v575h198v-575q88 0 119 17t72 83l182 285q84 129 136 159.5t198 30.5h92v-139h-105 q-51 0 -91 -34t-87 -112l-129 -213q-39 -68 -76.5 -101.5t-95.5 -47.5q76 -18 301 -268l373 -414h-235l-377 414q-121 131 -175.5 166.5t-101.5 35.5v-616h-198v616q-47 0 -101.5 -35.5t-175.5 -166.5l-377 -414h-235z" />
<glyph unicode="&#x417;" d="M111 18v152q248 -51 407 -51q61 0 101 3t96.5 16.5t86 47t29.5 86.5v224q0 127 -274 127h-276v127h241q276 0 277 131v223q0 106 -267 106q-88 0 -239.5 -11t-155.5 -11v139q250 16 393 16q223 0 339 -49t116 -174v-248q0 -68 -53 -107.5t-129 -51.5v-8q47 -8 79.5 -17.5 t68.5 -28t54.5 -51.5t18.5 -78v-266q0 -74 -31.5 -128t-77 -83.5t-115 -47t-128 -21.5t-133.5 -4q-207 0 -428 38z" />
<glyph unicode="&#x418;" horiz-adv-x="1480" d="M174 0v1329h182v-1098l715 1098h240v-1329h-183v1116l-714 -1116h-240z" />
<glyph unicode="&#x419;" horiz-adv-x="1484" d="M174 0v1329h182v-1098l715 1098h240v-1329h-183v1116l-714 -1116h-240zM442 1700h176q29 -80 55.5 -108.5t94.5 -28.5q57 0 91 31.5t56 105.5h93q-8 -115 -89 -187.5t-194 -72.5q-115 0 -195.5 72.5t-87.5 187.5z" />
<glyph unicode="&#x41a;" horiz-adv-x="1228" d="M172 0v1329h201v-575q78 0 114.5 19.5t75.5 80.5l182 285q84 129 136.5 159.5t197.5 30.5h92v-139h-104q-51 0 -91 -34t-87 -112l-129 -213q-39 -68 -77 -101.5t-95 -47.5q76 -18 301 -268l373 -414h-254l-367 414q-117 133 -169 167.5t-99 34.5v-616h-201z" />
<glyph unicode="&#x41b;" horiz-adv-x="1433" d="M8 0v139h113q66 0 89 21.5t23 87.5v1081h1029v-1329h-199v1182h-631v-981q0 -109 -60.5 -155t-181.5 -46h-182z" />
<glyph unicode="&#x41c;" horiz-adv-x="1763" d="M172 0v1329h297l426 -1106l6 -2l404 1108h286v-1329h-174v1124h-10l-428 -1124h-178l-441 1124h-10v-1124h-178z" />
<glyph unicode="&#x41d;" horiz-adv-x="1447" d="M172 0v1329h199v-573h706v573h199v-1329h-199v616h-706v-616h-199z" />
<glyph unicode="&#x41e;" horiz-adv-x="1390" d="M135 340v629q0 381 557 381q563 0 563 -379v-631q0 -109 -52 -184.5t-142 -111.5t-178 -50t-191 -14q-557 0 -557 360zM326 342q0 -229 370 -229q367 0 367 229v633q0 246 -369 246q-78 0 -137 -9.5t-114.5 -35t-86 -75.5t-30.5 -126v-633z" />
<glyph unicode="&#x41f;" horiz-adv-x="1406" d="M172 0v1329h1063v-1329h-199v1192h-665v-1192h-199z" />
<glyph unicode="&#x420;" horiz-adv-x="1167" d="M172 0v1329h434q82 0 141.5 -4t126 -19.5t106.5 -43t67.5 -76.5t27.5 -119v-276q0 -170 -132 -241t-374 -71h-198v-479h-199zM369 604h227q119 0 202 44t83 153v241q0 55 -29 91t-82 50.5t-89 17.5t-89 3h-223v-600z" />
<glyph unicode="&#x421;" horiz-adv-x="1155" d="M131 340v631q0 381 559 381q186 0 365 -39v-148q-197 49 -361 49q-78 0 -137 -9t-116.5 -32.5t-88 -73.5t-30.5 -126v-623q0 -229 380 -229q164 0 361 49v-152q-178 -39 -373 -38q-559 0 -559 360z" />
<glyph unicode="&#x422;" horiz-adv-x="1198" d="M49 1190v139h1100v-139h-449v-1190h-200v1190h-451z" />
<glyph unicode="&#x423;" horiz-adv-x="1099" d="M12 1329h221l342 -737l312 737h200l-473 -1093q-53 -127 -133 -191.5t-223 -64.5q-78 0 -172 20v143q66 -14 125 -14q88 0 138 40t91 132l41 94z" />
<glyph unicode="&#x424;" horiz-adv-x="1472" d="M135 483v342q0 199 145.5 288t360.5 89v127h199v-127q98 0 182 -19.5t157.5 -61.5t115.5 -116.5t42 -177.5v-344q0 -125 -77.5 -209t-184 -115.5t-235.5 -31.5v-127h-199v125q-135 0 -242.5 30.5t-185.5 114.5t-78 213zM334 485q0 -115 84 -170t223 -55v813 q-307 0 -307 -242v-346zM840 260q133 0 215 56t82 169v346q0 121 -84 181.5t-213 60.5v-813z" />
<glyph unicode="&#x425;" horiz-adv-x="1236" d="M16 0l490 678l-469 651h227l354 -514l355 514h227l-469 -651l490 -678h-228l-375 541l-374 -541h-228z" />
<glyph unicode="&#x426;" horiz-adv-x="1447" d="M172 0v1329h199v-1192h706v1192h199v-1669h-186v340h-918z" />
<glyph unicode="&#x427;" horiz-adv-x="1249" d="M141 754v575h197v-563q0 -164 242 -164q174 0 236.5 39t62.5 125v563h198v-1329h-198v610q-16 -76 -115.5 -108.5t-237.5 -32.5q-385 0 -385 285z" />
<glyph unicode="&#x428;" horiz-adv-x="1902" d="M172 0v1329h199v-1192h481v1192h199v-1192h481v1192h199v-1329h-1559z" />
<glyph unicode="&#x429;" horiz-adv-x="1902" d="M172 0v1329h199v-1192h481v1192h199v-1192h481v1192h199v-1669h-187v340h-1372z" />
<glyph unicode="&#x42a;" horiz-adv-x="1392" d="M18 1190v139h578v-573h199q100 0 168.5 -5.5t137 -21.5t109.5 -45t65.5 -79t24.5 -120v-196q0 -289 -469 -289h-434v1190h-379zM594 135h223q53 0 89 3t89.5 17.5t82 50.5t28.5 91v166q0 96 -62.5 127t-222.5 31h-227v-486z" />
<glyph unicode="&#x42b;" horiz-adv-x="1650" d="M172 0v1329h199v-573h198q100 0 169 -5.5t137.5 -21.5t109.5 -45t65.5 -79t24.5 -120v-196q0 -289 -469 -289h-434zM369 135h223q53 0 89 3t89 17.5t82 50.5t29 91v166q0 96 -62.5 127t-222.5 31h-227v-486zM1280 0v1329h199v-1329h-199z" />
<glyph unicode="&#x42c;" horiz-adv-x="1167" d="M172 0v1329h199v-573h198q100 0 169 -5.5t137.5 -21.5t109.5 -45t65.5 -79t24.5 -120v-196q0 -289 -469 -289h-434zM369 135h223q53 0 89 3t89 17.5t82 50.5t29 91v166q0 96 -62.5 127t-222.5 31h-227v-486z" />
<glyph unicode="&#x42d;" horiz-adv-x="1153" d="M90 18v152q197 -49 361 -49q381 0 380 229v266h-675v138h675v219q0 76 -30.5 126t-88 73.5t-116.5 32.5t-137 9q-164 0 -361 -49v148q178 39 365 39q559 0 559 -381v-631q0 -360 -559 -360q-195 -1 -373 38z" />
<glyph unicode="&#x42e;" horiz-adv-x="1912" d="M172 0v1329h199v-590h286v230q0 381 557 381q563 0 564 -379v-631q0 -109 -52.5 -184.5t-142.5 -111.5t-178 -50t-191 -14q-557 0 -557 360v272h-286v-612h-199zM848 342q0 -229 371 -229q366 0 366 229v633q0 246 -368 246q-78 0 -137.5 -9.5t-115 -35t-86 -75.5 t-30.5 -126v-633z" />
<glyph unicode="&#x42f;" horiz-adv-x="1253" d="M66 0l426 592q-143 0 -244 62.5t-101 185.5v229q0 158 105.5 209t361.5 51h467v-1329h-198v567h-193l-381 -567h-243zM346 864q0 -80 57.5 -123t219.5 -43h260v500h-279q-258 1 -258 -149v-185z" />
<glyph unicode="&#x430;" horiz-adv-x="1101" d="M102 295q0 166 74 228.5t285 62.5h297v157q0 82 -50.5 111t-189.5 29q-152 0 -340 -25v135q203 18 367 19q250 0 323.5 -60.5t73.5 -251.5v-700h-178v94q-23 -115 -299 -114q-205 0 -284 62t-79 253zM283 289q0 -106 33.5 -149.5t142.5 -43.5h37q53 0 89 2t81 11.5 t68.5 31t23.5 56.5v274h-285q-127 0 -158.5 -32.5t-31.5 -149.5z" />
<glyph unicode="&#x431;" d="M145 319v760q0 96 31 165t76 107t117.5 58.5t132 25.5t141.5 5q125 0 336 -19v-139q-217 27 -363 27q-160 0 -224 -40t-64 -186v-157q55 37 156.5 61.5t181.5 24.5q199 0 287.5 -80t88.5 -236v-377q0 -111 -34.5 -182t-104 -104t-139.5 -43t-172 -10q-84 0 -140.5 5 t-120 24.5t-100 55t-61.5 100t-25 154.5zM328 309q0 -133 58 -171t210 -38t208 37t56 172v385q0 100 -48 139t-189 39q-82 0 -169 -29.5t-126 -80.5v-453z" />
<glyph unicode="&#x432;" horiz-adv-x="1173" d="M172 0v991h434q131 0 212 -15t117 -52t46 -74t10 -100v-35q0 -82 -43 -120t-135 -58v-9q238 -38 238 -206v-60q0 -147 -93.5 -204.5t-336.5 -57.5h-449zM356 133h275q143 0 187 28.5t44 106.5v66q0 53 -44 86t-177 33h-285v-320zM356 573h267q123 0 157.5 31t34.5 117v12 q0 78 -37 104.5t-162 26.5h-260v-291z" />
<glyph unicode="&#x433;" horiz-adv-x="860" d="M172 0v991h627v-135h-443v-856h-184z" />
<glyph unicode="&#x434;" horiz-adv-x="1091" d="M33 131h94q127 285 127 791v69h637v-860h98v-405h-158v274h-641v-274h-157v405zM307 131h420v729h-309v-51q0 -389 -111 -678z" />
<glyph unicode="&#x435;" horiz-adv-x="1095" d="M123 283v391q0 182 104.5 260t333.5 78q215 0 314.5 -75t99.5 -263v-219h-666v-150q0 -104 75 -148t226 -44q133 0 326 49v-142q-193 -41 -383.5 -40.5t-310 73t-119.5 230.5zM309 575h482v156q0 90 -54.5 124t-179.5 34q-127 0 -187.5 -32t-60.5 -126v-156z" />
<glyph unicode="&#x436;" horiz-adv-x="1490" d="M-29 0l277 307q168 186 225 201q-74 18 -127 110l-98 160q-63 109 -131 109h-80v104h102q111 0 151 -22.5t99 -118.5l133 -215q31 -49 52.5 -62.5t87.5 -13.5v432h169v-432q66 0 87.5 13.5t52.5 62.5l133 215q59 96 99 118.5t151 22.5h100v-104h-80q-68 0 -131 -109 l-98 -160q-53 -92 -127 -110q57 -14 225 -201l277 -307h-217l-271 307q-88 98 -127 125t-74 27v-459h-169v459q-35 0 -74 -26.5t-127 -125.5l-271 -307h-219z" />
<glyph unicode="&#x437;" horiz-adv-x="1026" d="M72 14v146q219 -45 366 -45q59 0 95 3t83.5 16t71 47t23.5 87v64q0 43 -23.5 70.5t-68 39t-79 14.5t-83.5 3h-215v127h180q49 0 83 3t79 14t69.5 40t24.5 74v61q0 106 -246 107q-193 0 -334 -25v133q154 18 332 19q147 0 229 -15q102 -16 153.5 -63t51.5 -146v-79 q0 -68 -50 -109t-122 -53v-8q211 -33 211 -183v-102q0 -74 -29.5 -127t-71.5 -81t-109.5 -44t-122 -19t-132.5 -3q-154 0 -366 34z" />
<glyph unicode="&#x438;" horiz-adv-x="1224" d="M160 0v991h174v-801l491 801h240v-991h-174v819l-492 -819h-239z" />
<glyph unicode="&#x439;" horiz-adv-x="1224" d="M160 0v991h174v-801l491 801h240v-991h-174v819l-492 -819h-239zM381 1391h176q29 -80 55.5 -109t94.5 -29q57 0 90.5 32t56.5 106h92q-8 -115 -89 -188t-193 -73q-115 0 -196 73t-87 188z" />
<glyph unicode="&#x43a;" horiz-adv-x="1028" d="M158 0v991h184v-428q72 0 109.5 20.5t83.5 92.5l100 162q57 94 117.5 123.5t173.5 29.5h69v-104h-39q-104 0 -172 -109l-77 -127q-72 -125 -148 -143q57 -14 225 -201l277 -307h-227l-271 307q-59 68 -108 100.5t-65.5 34.5t-47.5 2v-444h-184z" />
<glyph unicode="&#x43b;" horiz-adv-x="1169" d="M0 -12v114q131 0 174 34t43 138v717h793v-991h-183v856h-428v-567q0 -100 -21.5 -163t-69.5 -92.5t-101 -38.5t-141 -9q-41 0 -66 2z" />
<glyph unicode="&#x43c;" horiz-adv-x="1517" d="M172 0v991h297l301 -807h8l281 807h287v-991h-170v823h-11l-305 -823h-186l-318 823h-10v-823h-174z" />
<glyph unicode="&#x43d;" horiz-adv-x="1175" d="M160 0v991h184v-411h487v411h185v-991h-185v444h-487v-444h-184z" />
<glyph unicode="&#x43e;" horiz-adv-x="1163" d="M123 313v344q0 98 23.5 166t57.5 105t99.5 56.5t121.5 23.5t154.5 4t155 -4t122 -23.5t99 -56.5t57 -105t23.5 -166v-344q0 -92 -22.5 -155.5t-57 -98t-99 -53t-123 -22.5t-154.5 -4q-123 0 -192 8t-137.5 39.5t-98 101.5t-29.5 184zM311 287q0 -66 14.5 -105t53.5 -56 t80 -21.5t120.5 -4.5t120.5 4.5t80 21.5t53.5 56t14.5 105v401q0 137 -55.5 170t-213 33t-213 -33t-55.5 -170v-401z" />
<glyph unicode="&#x43f;" horiz-adv-x="1181" d="M172 0v991h838v-991h-185v856h-469v-856h-184z" />
<glyph unicode="&#x440;" horiz-adv-x="1185" d="M160 -406v1397h184v-106q23 127 338 127q199 0 290 -83t91 -198v-407q0 -90 -26.5 -156t-66.5 -101.5t-105.5 -56t-123 -25.5t-139.5 -5t-159.5 20t-98.5 63v-469h-184zM334 301q0 -125 60.5 -161t212 -36t209.5 36t58 161v365q0 137 -59 175t-211 38q-154 0 -212 -38 t-58 -175v-365z" />
<glyph unicode="&#x441;" horiz-adv-x="950" d="M123 303v365q0 82 15.5 141t48 96t67.5 59.5t95.5 32t106.5 12.5t124 3q141 0 282 -31v-135q-160 41 -305 41q-158 0 -202 -33t-44 -160v-409q0 -109 51.5 -142.5t215.5 -33.5q145 0 299 38v-139q-135 -29 -318 -28q-90 0 -140 3t-114.5 20t-98.5 50t-58.5 95.5 t-24.5 154.5z" />
<glyph unicode="&#x442;" horiz-adv-x="1058" d="M49 856v135h961v-135h-387v-856h-185v856h-389z" />
<glyph unicode="&#x443;" horiz-adv-x="942" d="M12 991h201l276 -809h5l249 809h187l-492 -1397h-192l149 392z" />
<glyph unicode="&#x444;" horiz-adv-x="1861" d="M123 313v344q0 98 23.5 166t57.5 105t99.5 56.5t121.5 23.5t155 4q131 0 260 -47v454h184v-454q137 47 258 47q98 0 154.5 -4t122 -23.5t99.5 -56.5t57.5 -104.5t23.5 -166.5v-344q0 -92 -22.5 -155.5t-57.5 -98t-99.5 -53t-123 -22.5t-154.5 -4q-115 0 -258 45v-431 h-184v431q-135 -45 -260 -45q-123 0 -192 8t-137.5 39.5t-98 101.5t-29.5 184zM311 287q0 -66 14.5 -105t53.5 -56t80 -21.5t121 -4.5q260 0 260 148v489q0 154 -260 154q-158 0 -213.5 -33t-55.5 -170v-401zM1024 240q0 -70 70.5 -105t187.5 -35q80 0 121 4.5t80 21.5 t53 56t14 105v401q0 137 -55 170t-213 33q-258 0 -258 -146v-505z" />
<glyph unicode="&#x445;" horiz-adv-x="1062" d="M20 0l390 510l-369 481h223l266 -362l269 362h223l-389 -481l409 -510h-223l-289 391l-286 -391h-224z" />
<glyph unicode="&#x446;" horiz-adv-x="1202" d="M172 0v991h184v-856h490v856h184v-1265h-178v274h-680z" />
<glyph unicode="&#x447;" horiz-adv-x="1173" d="M160 598v393h184v-383q0 -37 6 -61.5t25.5 -50t65.5 -39t116 -13.5q162 0 217 35t55 129v383h185v-991h-180v455q-29 -141 -330 -142q-197 0 -270.5 71t-73.5 214z" />
<glyph unicode="&#x448;" horiz-adv-x="1673" d="M172 0v991h184v-856h387v856h187v-856h387v856h184v-991h-1329z" />
<glyph unicode="&#x449;" horiz-adv-x="1673" d="M172 0v991h184v-856h387v856h187v-856h387v856h184v-1265h-178v274h-1151z" />
<glyph unicode="&#x44a;" horiz-adv-x="1316" d="M49 856v135h557v-358h275q182 0 264 -43t82 -170v-205q-1 -215 -363 -215h-446v856h-369zM604 119h248q37 0 62.5 3t60.5 12t53.5 37t18.5 69v125q0 86 -36 115.5t-155 29.5h-252v-391z" />
<glyph unicode="&#x44b;" horiz-adv-x="1484" d="M172 0v991h188v-358h275q182 0 264 -43t82 -170v-205q-1 -215 -363 -215h-446zM358 119h248q37 0 62.5 3t60.5 12t53.5 37t18.5 69v125q0 86 -36 115.5t-155 29.5h-252v-391zM1139 0v991h184v-991h-184z" />
<glyph unicode="&#x44c;" horiz-adv-x="1091" d="M172 0v991h188v-358h295q182 0 264 -43t82 -170v-205q0 -215 -362 -215h-467zM358 119h269q37 0 62.5 3t60 12t53 37t18.5 69v125q0 86 -35.5 115.5t-154.5 29.5h-273v-391z" />
<glyph unicode="&#x44d;" horiz-adv-x="950" d="M74 8v139q154 -39 299 -38q164 0 215 33.5t51 142.5v149h-500v139h500v121q0 127 -44 160t-202 33q-145 0 -305 -41v135q141 31 283 31q78 0 124 -3t106.5 -12.5t95 -32t67.5 -59.5t48 -96t15 -141v-365q0 -92 -24.5 -154.5t-58 -95.5t-98 -50t-115 -20t-140.5 -3 q-182 -1 -317 28z" />
<glyph unicode="&#x44e;" horiz-adv-x="1654" d="M172 0v991h184v-446h258v112q0 98 24 166t57.5 105t99 56.5t122 23.5t154.5 4t154.5 -4t122 -23.5t99.5 -56.5t57.5 -104.5t23.5 -166.5v-344q0 -92 -22.5 -155.5t-57.5 -98t-99.5 -53t-123 -22.5t-154.5 -4q-123 0 -191.5 8t-137 39.5t-98.5 101.5t-30 184v119h-258 v-432h-184zM803 287q0 -66 14 -105t53 -56t80 -21.5t121 -4.5t121 4.5t80 21.5t53 56t14 105v401q0 137 -55 170t-213 33t-213 -33t-55 -170v-401z" />
<glyph unicode="&#x44f;" horiz-adv-x="1146" d="M41 0l385 422q-303 0 -303 207v106q0 156 69.5 206t274.5 50h508v-991h-184v397h-166l-340 -397h-244zM309 690q0 -109 28 -137.5t105 -28.5h349v340h-306q-111 0 -143.5 -29.5t-32.5 -115.5v-29z" />
<glyph unicode="&#x450;" horiz-adv-x="1095" d="M123 283v391q0 182 104.5 260t333.5 78q215 0 314.5 -75t99.5 -263v-219h-666v-150q0 -104 75 -148t226 -44q133 0 326 49v-142q-193 -41 -383.5 -40.5t-310 73t-119.5 230.5zM250 1393h223l184 -260h-151zM309 575h482v156q0 90 -54.5 124t-179.5 34q-127 0 -187.5 -32 t-60.5 -126v-156z" />
<glyph unicode="&#x451;" horiz-adv-x="1095" d="M123 283v391q0 182 104.5 260t333.5 78q215 0 314.5 -75t99.5 -263v-219h-666v-150q0 -104 75 -148t226 -44q133 0 326 49v-142q-193 -41 -383.5 -40.5t-310 73t-119.5 230.5zM309 575h482v156q0 90 -54.5 124t-179.5 34q-127 0 -187.5 -32t-60.5 -126v-156zM311 1157 v193h185v-193h-185zM659 1157v193h185v-193h-185z" />
<glyph unicode="&#x452;" horiz-adv-x="1173" d="M39 1133v106h121v180h180v-180h229v-106h-229l4 -277q45 131 326 131q201 0 275.5 -76.5t74.5 -248.5q0 -209 -77 -506t-173 -545h-201q100 242 183.5 535.5t83.5 502.5q0 106 -42 155.5t-178 49.5q-164 0 -218 -34t-54 -113v-707h-184v1133h-121z" />
<glyph unicode="&#x453;" horiz-adv-x="860" d="M172 0v991h627v-135h-443v-856h-184zM387 1133l184 260h224l-256 -260h-152z" />
<glyph unicode="&#x454;" horiz-adv-x="950" d="M123 303v365q0 82 15.5 141t48 96t67.5 59.5t95.5 32t106.5 12.5t124 3q141 0 282 -31v-135q-160 41 -305 41q-158 0 -202 -33t-44 -160v-121h500v-139h-500v-149q0 -109 51.5 -142.5t215.5 -33.5q145 0 299 38v-139q-135 -29 -318 -28q-90 0 -140 3t-114.5 20t-98.5 50 t-58.5 95.5t-24.5 154.5z" />
<glyph unicode="&#x455;" horiz-adv-x="989" d="M102 686v92q0 233 443 234q49 0 301 -17v-133q-176 29 -309 29q-147 0 -199.5 -28.5t-52.5 -96.5v-84q0 -100 182 -100h115q313 -1 313 -234v-86q0 -160 -111.5 -221t-320.5 -61q-160 0 -340 24v141q246 -39 344 -39q123 0 184.5 24t61.5 97v101q0 63 -43 89.5t-140 26.5 h-112q-156 0 -236 64.5t-80 177.5z" />
<glyph unicode="&#x456;" horiz-adv-x="507" d="M162 0v991h184v-991h-184zM162 1163v201h184v-201h-184z" />
<glyph unicode="&#x457;" horiz-adv-x="505" d="M-137 1163v193h184v-193h-184zM137 1481h221l-59 -348h-102zM162 0v991h184v-991h-184zM457 1163v193h184v-193h-184z" />
<glyph unicode="&#x458;" horiz-adv-x="501" d="M-88 -322q49 -8 78 -8q86 0 129 34t43 132v1155h184v-1141q0 -170 -80 -235.5t-250 -65.5q-51 0 -104 9v120zM162 1157v193h184v-193h-184z" />
<glyph unicode="&#x459;" horiz-adv-x="1732" d="M6 -12v114q131 0 174 34t43 138v717h799v-358h274q182 0 264 -43t82 -170v-205q0 -215 -362 -215h-446v872h-426v-581q0 -100 -21.5 -164t-71 -93.5t-102.5 -38.5t-141 -9q-41 0 -66 2zM1020 119h248q37 0 62.5 3t60 12t53 37t18.5 69v125q0 86 -35.5 115.5t-154.5 29.5 h-252v-391z" />
<glyph unicode="&#x45a;" horiz-adv-x="1712" d="M172 0v991h184v-358h457v358h188v-358h275q182 0 264 -43t82 -170v-205q0 -215 -362 -215h-447v510h-457v-510h-184zM999 119h248q37 0 62.5 3t60.5 12t53.5 37t18.5 69v125q0 86 -36 115.5t-155 29.5h-252v-391z" />
<glyph unicode="&#x45b;" horiz-adv-x="1173" d="M39 1133v106h121v195h184v-195h225v-106h-225v-263q29 141 326 142q197 0 270.5 -71t73.5 -214v-727h-185v715q0 37 -6 61.5t-25.5 50t-65.5 39t-116 13.5q-170 0 -221 -37t-51 -127v-715h-184v1133h-121z" />
<glyph unicode="&#x45c;" horiz-adv-x="1028" d="M158 0v991h184v-428q72 0 109.5 20.5t83.5 92.5l100 162q57 94 117.5 123.5t173.5 29.5h69v-104h-39q-104 0 -172 -109l-77 -127q-72 -125 -148 -143q57 -14 225 -201l277 -307h-227l-271 307q-59 68 -108 100.5t-65.5 34.5t-47.5 2v-444h-184zM430 1174l184 260h224 l-256 -260h-152z" />
<glyph unicode="&#x45d;" horiz-adv-x="1224" d="M160 0v991h174v-801l491 801h240v-991h-174v819l-492 -819h-239zM418 1393h223l184 -260h-151z" />
<glyph unicode="&#x45e;" horiz-adv-x="942" d="M12 991h201l276 -809l254 809h187l-494 -1401h-190l149 396zM238 1393h176q16 -74 50 -106t105 -32q113 0 142 138h92q-8 -115 -87 -187.5t-192 -72.5q-115 0 -197.5 73.5t-88.5 186.5z" />
<glyph unicode="&#x45f;" horiz-adv-x="1263" d="M172 0v991h184v-856h551v856h185v-991h-367v-274h-178v274h-375z" />
<glyph unicode="&#x462;" horiz-adv-x="1392" d="M49 1026v139h348v164h203v-164h344v-139h-346v-217h238q465 0 464 -266v-236q0 -86 -38.5 -148.5t-107.5 -95t-147.5 -48t-175.5 -15.5h-434v1026h-348zM598 125h219q53 0 88 3t87 17.5t80 50.5t28 91v200q0 109 -59.5 153t-219.5 44h-223v-559z" />
<glyph unicode="&#x463;" horiz-adv-x="1323" d="M49 856v135h354v443h189v-443h391v-135h-391v-223h295q182 0 264 -43t82 -170v-205q0 -215 -363 -215h-467v856h-354zM590 119h268q37 0 62.5 3t60.5 12t53.5 37t18.5 69v125q0 86 -36 115.5t-155 29.5h-272v-391z" />
<glyph unicode="&#x472;" horiz-adv-x="1390" d="M135 340v629q0 381 557 381q563 0 563 -379v-631q0 -109 -52 -184.5t-142 -111.5t-178 -50t-191 -14q-557 0 -557 360zM326 342q0 -229 370 -229q367 0 367 229v258q-66 -59 -160 -59q-45 0 -197.5 45t-179.5 45q-109 0 -200 -64v-225zM326 719q92 61 200 61 q29 0 181.5 -44t195.5 -44q96 0 160 62v221q0 246 -369 246q-78 0 -137 -9.5t-114.5 -35t-86 -75.5t-30.5 -126v-256z" />
<glyph unicode="&#x473;" horiz-adv-x="1163" d="M123 313v344q0 98 23.5 166t57.5 105t99.5 56.5t121.5 23.5t154.5 4t155 -4t122 -23.5t99 -56.5t57 -105t23.5 -166v-344q0 -92 -22.5 -155.5t-57 -98t-99 -53t-123 -22.5t-154.5 -4q-123 0 -192 8t-137.5 39.5t-98 101.5t-29.5 184zM311 287q0 -66 14.5 -105t53.5 -56 t80 -21.5t120.5 -4.5t120.5 4.5t80 21.5t53.5 56t14.5 105v157q-49 -43 -117 -43q-29 0 -132 33t-142 33q-78 0 -146 -45v-135zM311 553q66 43 146 43q41 0 138 -32t136 -32q72 0 117 46v110q0 137 -55.5 170t-213 33t-213 -33t-55.5 -170v-135z" />
<glyph unicode="&#x474;" horiz-adv-x="1474" d="M8 1329h217l346 -967q43 -121 52 -151q6 23 51 151l299 803q70 186 231 187q109 0 271 -115l-80 -119q-96 66 -152 66q-76 0 -117 -103l-421 -1081h-181z" />
<glyph unicode="&#x475;" horiz-adv-x="1189" d="M27 991h176l215 -594q31 -88 61 -198q29 86 64 188l153 422q37 100 82 145q57 57 152 58q100 -1 264 -103l-80 -127q-106 61 -172 62q-63 0 -102 -107l-279 -737h-158z" />
<glyph unicode="&#x48a;" horiz-adv-x="1480" d="M174 0v1329h182v-1098l715 1098h240v-1329h-183v1116l-714 -1116h-240zM442 1700h176q29 -80 55.5 -108.5t94.5 -28.5q57 0 91 31.5t56 105.5h93q-8 -115 -89 -187.5t-194 -72.5q-115 0 -195.5 72.5t-87.5 187.5z" />
<glyph unicode="&#x48b;" horiz-adv-x="1245" d="M160 0v991h174v-801l512 801h239v-991h-174v819l-512 -819h-239zM367 1391h176q29 -80 55.5 -109t93.5 -29q57 0 91 32t57 106h92q-8 -115 -89 -188t-194 -73q-115 0 -195.5 73t-86.5 188z" />
<glyph unicode="&#x48c;" horiz-adv-x="1167" d="M43 1047v129h129v153h199v-153h176v-129h-176v-291h198q100 0 169 -5.5t137.5 -21.5t109.5 -45t65.5 -79t24.5 -120v-196q0 -289 -469 -289h-434v1047h-129zM369 135h223q53 0 89 3t89 17.5t82 50.5t29 91v166q0 88 -66.5 123t-218.5 35h-227v-486z" />
<glyph unicode="&#x48d;" horiz-adv-x="1091" d="M43 1047v129h129v153h188v-153h187v-129h-187v-414h295q182 0 264 -43t82 -170v-205q0 -215 -362 -215h-467v1047h-129zM358 119h269q37 0 62.5 3t60 12t53 37t18.5 69v125q0 86 -35.5 115.5t-154.5 29.5h-273v-391z" />
<glyph unicode="&#x48e;" horiz-adv-x="1167" d="M172 0v1329h434q82 0 141.5 -4t126 -19.5t106.5 -43t67.5 -76.5t27.5 -119v-276q0 -150 -106 -224l102 -102l-94 -94l-139 137q-106 -29 -269 -29h-198v-479h-199zM369 604h227q72 0 131 14l-113 113l97 96l135 -137q35 50 35 111v241q0 55 -29 91t-82 50.5t-89 17.5 t-89 3h-223v-600z" />
<glyph unicode="&#x48f;" horiz-adv-x="1185" d="M160 -381v1372h182v-106h2q23 127 338 127q199 0 290 -83t91 -198v-407q0 -172 -96 -256l110 -111l-94 -94l-141 141q-96 -25 -240 -24q-82 0 -159.5 20t-98.5 63v-444h-184zM334 301q0 -125 60.5 -161t211.5 -36q72 0 127 7l-112 112l96 96l135 -137q22 45 22 119v365 q0 137 -59 175t-211 38q-154 0 -212 -38t-58 -175v-365z" />
<glyph unicode="&#x490;" horiz-adv-x="1146" d="M172 0v1329h756v232h157v-371h-714v-1190h-199z" />
<glyph unicode="&#x491;" horiz-adv-x="901" d="M172 0v991h524v189h144v-324h-484v-856h-184z" />
<glyph unicode="&#x492;" horiz-adv-x="1146" d="M20 616v140h152v573h913v-139h-714v-434h497v-140h-497v-616h-199v616h-152z" />
<glyph unicode="&#x493;" horiz-adv-x="921" d="M47 406v135h125v450h688v-135h-504v-315h279v-135h-279v-406h-184v406h-125z" />
<glyph unicode="&#x494;" horiz-adv-x="1372" d="M172 0v1329h850v-139h-653v-395q190 88 360 88q227 0 351 -153.5t124 -432.5q0 -324 -144.5 -505t-406.5 -181q-166 0 -304 76.5t-156 187.5h176q16 -47 98 -81t180 -34q180 0 281.5 137.5t101.5 381.5q0 229 -82 350t-243 121q-139 0 -336 -84v-666h-197z" />
<glyph unicode="&#x495;" horiz-adv-x="1124" d="M135 0v991h789v-117h-602v-372q104 33 217 33q203 0 335 -127.5t132 -317.5q0 -215 -126 -347t-325 -132q-164 0 -275.5 70.5t-125.5 187.5h168q41 -137 233 -137q123 0 196.5 98t73.5 245.5t-83 235.5t-226 88q-82 0 -194 -26v-373h-187z" />
<glyph unicode="&#x496;" horiz-adv-x="1953" d="M-12 0l372 414q225 250 302 268q-57 14 -95.5 48t-77.5 101l-129 213q-47 78 -87 112t-91 34h-104v139h92q145 0 197.5 -30.5t136.5 -159.5l182 -285q41 -66 71.5 -83t119.5 -17v575h198v-575q88 0 119 17t72 83l182 285q84 129 136 159.5t198 30.5h92v-139h-105 q-51 0 -91 -34t-87 -112l-129 -213q-39 -68 -76.5 -101.5t-95.5 -47.5q76 -18 301 -268l248 -277h154v-506h-164v369h-100l-377 414q-121 131 -175.5 166.5t-101.5 35.5v-616h-198v616q-47 0 -101.5 -35.5t-175.5 -166.5l-377 -414h-235z" />
<glyph unicode="&#x497;" horiz-adv-x="1519" d="M-29 0l277 307q168 186 225 201q-74 18 -127 110l-98 160q-63 109 -131 109h-80v104h98q111 0 151 -22.5t99 -118.5l133 -215q31 -49 54.5 -62.5t89.5 -13.5v432h169v-432q66 0 89.5 13.5t54.5 62.5l133 215q59 96 99 118.5t151 22.5h96v-104h-80q-68 0 -131 -109 l-98 -160q-53 -92 -127 -110q57 -14 225 -201l152 -170h157v-506h-163v369h-82l-271 307q-61 68 -102 103.5t-59.5 42t-43.5 6.5v-459h-169v459q-25 0 -43.5 -6.5t-59.5 -42t-102 -103.5l-271 -307h-215z" />
<glyph unicode="&#x498;" d="M158 18v148q248 -51 387 -51q61 0 98 3t89 16t79 47t27 87v207q0 43 -23.5 70.5t-68 39t-79 14.5t-83.5 3h-256v127h221q49 0 83 3t79 14.5t69.5 40t24.5 73.5v205q0 106 -246 106q-88 0 -223 -11t-152 -11v133q250 16 373 16q219 0 326.5 -49t107.5 -174v-223 q0 -68 -53 -107.5t-129 -52.5v-8q47 -8 80 -17.5t68.5 -27.5t54 -51t18.5 -78v-246q0 -80 -30.5 -136t-89 -86t-119 -43t-140.5 -17q20 -102 21 -154q0 -98 -58.5 -157.5t-156.5 -59.5q-100 0 -215 59v117q88 -45 166 -45q63 0 102 42t39 107q0 43 -12 89q-172 2 -379 38z " />
<glyph unicode="&#x499;" horiz-adv-x="1017" d="M123 14v146q219 -45 364 -45q59 0 95 3t84.5 16t72 47t23.5 87v64q0 43 -23.5 70.5t-67.5 39t-79 14.5t-84 3h-215v127h180q49 0 83 3t79 14t69.5 40t24.5 74v61q0 106 -246 107h-32q-160 0 -301 -25v133q154 18 331 19q147 0 230 -15q102 -16 153 -63t51 -146v-79 q0 -68 -55 -109t-131 -53v-4q225 -35 225 -187v-102q0 -76 -27.5 -129t-79.5 -82t-108.5 -42t-130.5 -17q23 -100 23 -156q0 -98 -58.5 -157.5t-156.5 -59.5q-100 0 -215 59v117q88 -45 166 -45q63 0 102 42t39 107q0 43 -12 89h-7q-137 0 -366 34z" />
<glyph unicode="&#x49a;" horiz-adv-x="1251" d="M174 0v1329h199v-575q84 0 127 36.5t123 155.5l125 189q84 127 145 160.5t207 33.5h71v-139h-84q-111 0 -198 -146l-90 -149q-41 -70 -102.5 -129t-116.5 -74q74 -18 309 -278l248 -277h163v-506h-163v369h-111l-377 414q-121 131 -175 166.5t-101 35.5v-616h-199z" />
<glyph unicode="&#x49b;" horiz-adv-x="1030" d="M172 0v991h170v-432q68 0 103.5 21.5t80.5 95.5l101 162q59 94 114.5 123.5t167.5 29.5h56v-104h-39q-104 0 -172 -109l-78 -127q-72 -125 -148 -143q57 -14 226 -201l151 -170h156v-506h-156v369h-88l-270 307q-61 68 -102.5 103.5t-59.5 42t-43 6.5v-459h-170z" />
<glyph unicode="&#x49c;" horiz-adv-x="1251" d="M174 0v1329h199v-575q78 0 127 37v364h96v-250l152 230q84 127 144 160.5t208 33.5h71v-139h-84q-111 0 -198 -146l-90 -149q-96 -156 -203 -197v-12q78 -35 293 -272l373 -414h-236l-430 469v-311h-96v403q-68 55 -127 55v-616h-199z" />
<glyph unicode="&#x49d;" horiz-adv-x="1030" d="M172 0v991h170v-432q57 0 86 12v338h96v-237l103 166q59 94 114.5 123.5t167.5 29.5h56v-104h-39q-104 0 -172 -109l-78 -127q-72 -125 -148 -143q57 -14 226 -201l276 -307h-213l-270 307l-23 25v-215h-96v307q-43 35 -86 35v-459h-170z" />
<glyph unicode="&#x49e;" horiz-adv-x="1251" d="M-20 1083v107h194v139h199v-139h194v-107h-194v-329q84 0 127 36.5t123 155.5l125 189q84 127 145 160.5t207 33.5h71v-139h-84q-111 0 -198 -146l-90 -149q-41 -70 -102.5 -129t-116.5 -74q74 -18 309 -278l373 -414h-236l-377 414q-121 131 -175 166.5t-101 35.5v-616 h-199v1083h-194z" />
<glyph unicode="&#x49f;" horiz-adv-x="1030" d="M41 737v107h131v147h170v-147h143v-107h-143v-178q68 0 103.5 21.5t80.5 95.5l101 162q59 94 114.5 123.5t167.5 29.5h56v-104h-39q-104 0 -172 -109l-78 -127q-72 -125 -148 -143q57 -14 226 -201l276 -307h-213l-270 307q-61 68 -102.5 103.5t-59.5 42t-43 6.5v-459 h-170v737h-131z" />
<glyph unicode="&#x4a0;" horiz-adv-x="1579" d="M49 1190v139h651v-575q84 0 127 36.5t123 155.5l125 189q82 127 143.5 160.5t208.5 33.5h72v-139h-84q-111 0 -198 -146l-91 -149q-41 -70 -102 -129t-117 -74q74 -18 310 -278l372 -414h-235l-377 414q-121 131 -175 166.5t-102 35.5v-616h-200v1190h-451z" />
<glyph unicode="&#x4a1;" horiz-adv-x="1292" d="M49 856v135h574v-432q68 0 101.5 21.5t78.5 95.5l100 162q59 94 114.5 123.5t168.5 29.5h69v-104h-38q-104 0 -173 -109l-77 -127q-72 -125 -148 -143q57 -14 225 -201l277 -307h-227l-271 307q-88 98 -127 125t-73 27v-459h-185v856h-389z" />
<glyph unicode="&#x4a2;" horiz-adv-x="1447" d="M172 0v1329h199v-573h706v573h199v-1192h127v-506h-164v369h-162v616h-706v-616h-199z" />
<glyph unicode="&#x4a3;" horiz-adv-x="1181" d="M172 0v991h184v-411h469v411h185v-854h125v-506h-164v369h-146v444h-469v-444h-184z" />
<glyph unicode="&#x4a4;" horiz-adv-x="1619" d="M172 0v1329h199v-573h706v573h543v-139h-344v-1190h-199v616h-706v-616h-199z" />
<glyph unicode="&#x4a5;" horiz-adv-x="1339" d="M172 0v991h184v-411h469v411h514v-133h-329v-858h-185v444h-469v-444h-184z" />
<glyph unicode="&#x4a6;" horiz-adv-x="2238" d="M172 0v1329h1063v-577q190 88 360 88q229 0 352.5 -145.5t123.5 -420.5q0 -319 -143.5 -491t-407.5 -172q-170 0 -306.5 67.5t-154.5 176.5h176q16 -45 95 -70t183 -25q182 0 282.5 128t100.5 368q0 451 -325 451q-139 0 -336 -84v-623h-199v1192h-665v-1192h-199z" />
<glyph unicode="&#x4a7;" horiz-adv-x="1812" d="M172 0v991h838v-489q104 33 217 33q203 0 335 -127.5t132 -317.5q0 -215 -126 -347t-325 -132q-164 0 -275.5 70.5t-125.5 187.5h168q41 -137 233 -137q123 0 196.5 98t73.5 245.5t-82.5 235.5t-226.5 88q-82 0 -194 -26v-373h-187v856h-467v-856h-184z" />
<glyph unicode="&#x4a8;" horiz-adv-x="1433" d="M119 674q0 299 166 487q168 193 463 193q213 0 358 -121l-102 -103q-94 90 -261 91q-217 0 -342 -177q-102 -139 -102 -368q0 -236 96 -379q127 -186 334 -186l51 4q-98 178 -98 403q0 207 70 307q80 127 274 127q315 0 315 -424q0 -152 -70.5 -276.5t-201.5 -198.5 q139 -86 272 -90v-156q-272 18 -450 185q-51 -12 -148 -12q-309 0 -475 202q-150 184 -149 492zM856 518q0 -225 94 -362q111 49 168.5 145t57.5 225q0 137 -39 214t-111 77q-104 0 -145 -94q-25 -57 -25 -205z" />
<glyph unicode="&#x4a9;" horiz-adv-x="1067" d="M96 496q0 238 117 378t332 140q156 0 258 -78l-109 -88q-59 49 -141 49q-141 0 -214 -102.5t-73 -292.5q0 -193 70 -296.5t207 -103.5h18q-100 162 -100 340q0 113 64.5 182.5t170.5 69.5q244 0 244 -262q0 -244 -141 -369q57 -51 141 -90v-145q-182 78 -281 172 q-51 -14 -114 -14q-213 0 -331 137t-118 373zM614 436q0 -166 82 -272q92 75 92 270q0 82 -21.5 114t-70.5 32q-82 0 -82 -144z" />
<glyph unicode="&#x4aa;" horiz-adv-x="1155" d="M131 340v631q0 381 559 381q186 0 365 -39v-148q-197 49 -361 49q-78 0 -137 -9t-116.5 -32.5t-88 -73.5t-30.5 -126v-623q0 -229 380 -229q164 0 361 49v-152q-176 -37 -340 -38q27 -106 27 -166q0 -94 -58 -152q-55 -57 -151 -57q-98 0 -207 57v115q84 -45 160 -45 q61 0 99 41t38 104q0 39 -19 105q-481 27 -481 358z" />
<glyph unicode="&#x4ab;" horiz-adv-x="950" d="M123 303v365q0 82 15.5 141t48 96t67.5 59.5t95.5 32t106.5 12.5t124 3q141 0 282 -31v-135q-160 41 -305 41q-158 0 -202 -33t-44 -160v-409q0 -109 51.5 -142.5t215.5 -33.5q145 0 299 38v-139q-104 -23 -256 -26q27 -111 26 -168q0 -94 -57 -152q-55 -57 -152 -57 q-98 0 -207 57v115q84 -45 160 -45q61 0 99 41t38 104q0 51 -18 103q-94 0 -153.5 10t-119 40.5t-87 98.5t-27.5 174z" />
<glyph unicode="&#x4ac;" horiz-adv-x="1198" d="M49 1190v139h1100v-139h-449v-1053h123v-506h-164v369h-159v1190h-451z" />
<glyph unicode="&#x4ad;" horiz-adv-x="1058" d="M49 856v135h961v-135h-387v-719h122v-506h-163v369h-144v856h-389z" />
<glyph unicode="&#x4ae;" horiz-adv-x="1196" d="M16 1329h228l354 -624l354 624h228l-484 -786v-543h-198v537z" />
<glyph unicode="&#x4af;" horiz-adv-x="948" d="M12 991h195l274 -749h11l266 749h178l-371 -989v-428h-184v469z" />
<glyph unicode="&#x4b0;" horiz-adv-x="1196" d="M16 1329h228l354 -624l354 624h228l-353 -573h246v-140h-332l-45 -73v-543h-198v537l-49 79h-367v140h283z" />
<glyph unicode="&#x4b1;" horiz-adv-x="948" d="M12 991h195l274 -749h11l266 749h178l-371 -983v-8h322v-139h-322v-287h-184v287h-320v139h320v43z" />
<glyph unicode="&#x4b2;" horiz-adv-x="1236" d="M16 0l490 678l-469 651h227l354 -514l355 514h227l-469 -651l389 -541h160v-506h-164v369h-123l-375 541l-374 -541h-228z" />
<glyph unicode="&#x4b3;" horiz-adv-x="980" d="M20 0l369 510l-348 481h203l245 -362l248 362h203l-348 -481l268 -373h158v-506h-164v369h-96l-269 391l-266 -391h-203z" />
<glyph unicode="&#x4b4;" horiz-adv-x="1894" d="M45 1190v139h1059v-139h-430v-1051h655v1190h199v-1190h121v-508h-174v369h-1002v1190h-428z" />
<glyph unicode="&#x4b5;" horiz-adv-x="1415" d="M39 856v135h868v-135h-342v-721h490v856h184v-856h117v-436h-154v301h-821v856h-342z" />
<glyph unicode="&#x4b6;" horiz-adv-x="1249" d="M141 754v575h197v-563q0 -164 242 -164q174 0 236.5 39t62.5 125v563h198v-1192h121v-506h-164v369h-155v610q-16 -76 -115.5 -108.5t-237.5 -32.5q-385 0 -385 285z" />
<glyph unicode="&#x4b7;" horiz-adv-x="1173" d="M160 598v393h184v-383q0 -37 6 -61.5t25.5 -50t65.5 -39t116 -13.5q162 0 217 35t55 129v383h185v-854h123v-506h-164v369h-139v455q-29 -141 -330 -142q-197 0 -270.5 71t-73.5 214z" />
<glyph unicode="&#x4b8;" horiz-adv-x="1249" d="M141 754v575h197v-563q0 -160 221 -164v266h96v-264q127 8 175.5 47t48.5 115v563h198v-1329h-198v610q-23 -106 -224 -133v-235h-96v227h-33q-385 0 -385 285z" />
<glyph unicode="&#x4b9;" horiz-adv-x="1173" d="M160 598v393h184v-383q0 -47 9 -76.5t50 -56t119 -31.5v322h96v-322q123 6 167 43t44 121v383h185v-991h-180v455q-25 -111 -216 -136v-180h-96v174h-18q-197 0 -270.5 71t-73.5 214z" />
<glyph unicode="&#x4ba;" horiz-adv-x="1280" d="M172 0v1329h199v-610q16 74 124.5 107.5t247.5 33.5q205 0 305.5 -74.5t100.5 -210.5v-575h-197v563q0 70 -62.5 117t-199.5 47q-176 0 -247.5 -40t-71.5 -124v-563h-199z" />
<glyph unicode="&#x4bb;" horiz-adv-x="1173" d="M160 0v1434h184v-564q29 141 326 142q197 0 270.5 -71t73.5 -214v-727h-185v715q0 37 -6 61.5t-25.5 50t-65.5 39t-116 13.5q-170 0 -221 -37t-51 -127v-715h-184z" />
<glyph unicode="&#x4bc;" horiz-adv-x="1536" d="M2 813q0 59 18 133l140 -33q-12 -41 -13 -79q0 -55 27.5 -79t93.5 -24v-121q-137 0 -201.5 47.5t-64.5 155.5zM268 381v522q0 244 139.5 346.5t444.5 102.5q285 0 417 -98.5t132 -350.5v-313h-940v-223q0 -256 457 -256q170 0 432 65v-143q-258 -53 -510 -53 q-254 0 -413 96t-159 305zM461 731h747v277q0 213 -362 213q-178 0 -281.5 -46.5t-103.5 -166.5v-277z" />
<glyph unicode="&#x4bd;" horiz-adv-x="1236" d="M-2 657q0 59 18 134l140 -33q-12 -41 -13 -80q0 -55 28 -79t93 -24v99q0 182 104.5 260t333.5 78q215 0 314.5 -75t99.5 -263v-219h-665v-150q0 -104 74.5 -148t226.5 -44q133 0 325 49v-142q-193 -41 -383 -40.5t-310 73t-120 230.5v172q-137 0 -201.5 47t-64.5 155z M451 575h481v156q0 90 -54.5 124t-179.5 34q-127 0 -187 -32t-60 -126v-156z" />
<glyph unicode="&#x4be;" horiz-adv-x="1536" d="M2 813q0 59 18 133l140 -33q-12 -41 -13 -79q0 -55 27.5 -79t93.5 -24v-121q-137 0 -201.5 47.5t-64.5 155.5zM268 381v522q0 244 139.5 346.5t444.5 102.5q285 0 417 -98.5t132 -350.5v-313h-940v-223q0 -256 457 -256q170 0 432 65v-143q-258 -53 -510 -53 q-254 0 -413 96t-159 305zM461 731h747v277q0 213 -362 213q-178 0 -281.5 -46.5t-103.5 -166.5v-277zM768 -217q0 102 74 217h153q-66 -102 -65 -199q0 -68 80 -67q16 0 63 14v-108q-43 -21 -102 -21q-102 0 -152.5 38t-50.5 126z" />
<glyph unicode="&#x4bf;" horiz-adv-x="1236" d="M-2 657q0 59 18 134l140 -33q-12 -41 -13 -80q0 -55 28 -79t93 -24v99q0 182 104.5 260t333.5 78q215 0 314.5 -75t99.5 -263v-219h-665v-150q0 -104 74.5 -148t226.5 -44q133 0 325 49v-142q-193 -41 -383 -40.5t-310 73t-120 230.5v172q-137 0 -201.5 47t-64.5 155z M451 575h481v156q0 90 -54.5 124t-179.5 34q-127 0 -187 -32t-60 -126v-156zM612 -211q0 102 74 217h154q-66 -102 -66 -199q0 -68 80 -67q16 0 64 14v-108q-44 -21 -103 -21q-102 0 -152.5 38t-50.5 126z" />
<glyph unicode="&#x4c0;" horiz-adv-x="542" d="M172 0v1329h199v-1329h-199z" />
<glyph unicode="&#x4c1;" horiz-adv-x="1953" d="M-12 0l372 414q225 250 302 268q-57 14 -95.5 48t-77.5 101l-129 213q-47 78 -87 112t-91 34h-104v139h92q145 0 197.5 -30.5t136.5 -159.5l182 -285q41 -66 72 -83t119 -17v575h198v-575q88 0 119 17t72 83l182 285q84 129 136 159.5t198 30.5h92v-139h-105 q-51 0 -91 -34t-87 -112l-129 -213q-39 -68 -76.5 -101.5t-95.5 -47.5q76 -18 301 -268l373 -414h-235l-377 414q-121 131 -175.5 166.5t-101.5 35.5v-616h-198v616q-47 0 -101.5 -35.5t-175.5 -166.5l-377 -414h-235zM735 1731h111q12 -139 131 -139.5t131 139.5h111 q-4 -119 -68 -190t-174.5 -71t-174 71t-67.5 190z" />
<glyph unicode="&#x4c2;" horiz-adv-x="1490" d="M-29 0l277 307q168 186 225 201q-74 18 -127 110l-98 160q-63 109 -131 109h-80v104h102q111 0 151 -22.5t99 -118.5l133 -215q31 -49 52.5 -62.5t87.5 -13.5v432h169v-432q66 0 87.5 13.5t52.5 62.5l133 215q59 96 99 118.5t151 22.5h100v-104h-80q-68 0 -131 -109 l-98 -160q-53 -92 -127 -110q57 -14 225 -201l277 -307h-217l-271 307q-88 98 -127 125t-74 27v-459h-169v459q-35 0 -74 -26.5t-127 -125.5l-271 -307h-219zM504 1393h110q12 -139 131 -139.5t132 139.5h110q-4 -119 -67.5 -189.5t-174 -70.5t-174 70.5t-67.5 189.5z" />
<glyph unicode="&#x4c3;" horiz-adv-x="1366" d="M172 0v1329h199v-584q115 0 161 44.5t123 228.5q59 141 93 187t102 87q66 37 145 37q104 0 107 -2v-151q-8 0 -35 1t-35 1q-82 0 -126 -39t-95 -174q-68 -170 -117 -220q240 0 373 -136t133 -378q0 -297 -145.5 -459.5t-407.5 -162.5q-168 0 -307 77.5t-156 186.5h174 q23 -49 103 -82t180 -33q178 0 275.5 120t97.5 337q0 186 -93.5 297t-258.5 111h-291v-623h-199z" />
<glyph unicode="&#x4c4;" horiz-adv-x="1112" d="M160 0v991h184v-428q72 0 104.5 25.5t65.5 99.5l92 203q31 63 74 81.5t149 18.5h35v-139h-49q-59 0 -80.5 -21.5t-60.5 -119.5q-35 -88 -90 -148q195 0 318.5 -130t123.5 -333q0 -213 -132 -351t-335 -138q-160 0 -270.5 74.5t-128.5 195.5h168q43 -133 231 -133 q125 0 207 93t82 243q0 156 -82 244t-227 88h-195v-416h-184z" />
<glyph unicode="&#x4c5;" horiz-adv-x="1343" d="M18 4l33 135q47 -18 82 -18q76 0 103.5 57.5t27.5 224.5v926h920v-1157h182l-186 -580h-172l137 408h-160v1190h-522v-774q0 -244 -64.5 -340t-226.5 -96q-66 0 -154 24z" />
<glyph unicode="&#x4c6;" horiz-adv-x="1343" d="M18 0l33 135q47 -18 82 -18q78 0 112 59.5t34 222.5v592h837v-819h182l-186 -580h-172l137 408h-145v856h-469v-420q0 -252 -64.5 -356.5t-226.5 -104.5q-66 0 -154 25z" />
<glyph unicode="&#x4c7;" horiz-adv-x="1447" d="M172 0v1329h199v-573h706v573h199v-1063q0 -354 -153.5 -504.5t-428.5 -150.5q-219 0 -351 73.5t-150 190.5h176q41 -115 319 -115q199 0 294 115t95 404v337h-706v-616h-199z" />
<glyph unicode="&#x4c8;" horiz-adv-x="1181" d="M172 0v991h184v-411h469v411h185v-921q0 -213 -118 -336t-319 -123q-164 0 -275.5 70.5t-125.5 187.5h168q41 -137 233 -137q123 0 187.5 87t64.5 236v389h-469v-444h-184z" />
<glyph unicode="&#x4c9;" horiz-adv-x="1447" d="M172 0v1329h199v-573h706v573h199v-1192h164l-144 -506h-163l104 369h-160v616h-706v-616h-199z" />
<glyph unicode="&#x4ca;" horiz-adv-x="1181" d="M172 0v991h184v-411h469v411h185v-854h164l-144 -506h-164l105 369h-146v444h-469v-444h-184z" />
<glyph unicode="&#x4cb;" horiz-adv-x="1249" d="M141 754v575h197v-563q0 -164 242 -164q174 0 236.5 39t62.5 125v563h198v-1329h-159v-369h-164v506h125v473q-16 -76 -115.5 -108.5t-237.5 -32.5q-385 0 -385 285z" />
<glyph unicode="&#x4cc;" horiz-adv-x="1173" d="M160 598v393h184v-383q0 -37 6 -61.5t25.5 -50t65.5 -39t116 -13.5q162 0 217 35t55 129v383h185v-991h-140v-369h-163v506h123v318q-29 -141 -330 -142q-197 0 -270.5 71t-73.5 214z" />
<glyph unicode="&#x4cd;" horiz-adv-x="1763" d="M172 0v1329h297l426 -1106l6 -2l404 1108h286v-1192h162l-143 -506h-164l104 369h-133v1124h-10l-428 -1124h-178l-441 1124h-10v-1124h-178z" />
<glyph unicode="&#x4ce;" horiz-adv-x="1517" d="M172 0v991h297l301 -807h8l281 807h287v-854h163l-143 -506h-164l105 369h-131v823h-11l-305 -823h-186l-318 823h-10v-823h-174z" />
<glyph unicode="&#x4cf;" horiz-adv-x="542" d="M172 0v1329h199v-1329h-199z" />
<glyph unicode="&#x4d0;" horiz-adv-x="1335" d="M31 0l528 1329h229l517 -1329h-207l-152 403h-569l-150 -403h-196zM426 1731h111q12 -139 130.5 -139.5t131.5 139.5h110q-4 -119 -67.5 -190t-174 -71t-174 71t-67.5 190zM428 541h469l-225 600h-19z" />
<glyph unicode="&#x4d1;" horiz-adv-x="1101" d="M102 295q0 166 74 228.5t285 62.5h297v157q0 82 -50.5 111t-189.5 29q-152 0 -340 -25v135q203 18 367 19q250 0 323.5 -60.5t73.5 -251.5v-700h-178v94q-23 -115 -299 -114q-205 0 -284 62t-79 253zM283 289q0 -106 33.5 -149.5t142.5 -43.5h37q53 0 89 2t81 11.5 t68.5 31t23.5 56.5v274h-285q-127 0 -158.5 -32.5t-31.5 -149.5zM309 1393h111q12 -139 131 -139.5t131 139.5h111q-4 -119 -67.5 -189.5t-174.5 -70.5t-174.5 70.5t-67.5 189.5z" />
<glyph unicode="&#x4d2;" horiz-adv-x="1335" d="M31 0l528 1329h229l517 -1329h-207l-152 403h-569l-150 -403h-196zM401 1495v193h185v-193h-185zM428 541h469l-225 600h-19zM750 1495v193h184v-193h-184z" />
<glyph unicode="&#x4d3;" horiz-adv-x="1101" d="M102 295q0 166 74 228.5t285 62.5h297v157q0 82 -50.5 111t-189.5 29q-152 0 -340 -25v135q203 18 367 19q250 0 323.5 -60.5t73.5 -251.5v-700h-178v94q-23 -115 -299 -114q-205 0 -284 62t-79 253zM283 289q0 -106 33.5 -149.5t142.5 -43.5h37q53 0 89 2t81 11.5 t68.5 31t23.5 56.5v274h-285q-127 0 -158.5 -32.5t-31.5 -149.5zM285 1157v193h184v-193h-184zM633 1157v193h184v-193h-184z" />
<glyph unicode="&#x4d4;" horiz-adv-x="1890" d="M0 0l733 1329h1034v-139h-632v-434h565v-140h-565v-477h653v-139h-852v403h-504l-209 -403h-223zM502 541h434v649h-98z" />
<glyph unicode="&#x4d5;" horiz-adv-x="1720" d="M102 287q0 172 73 235.5t286 63.5h307v153q0 78 -52 111t-181 33q-225 0 -357 -35v135q154 29 381 29q244 0 324 -72q100 72 313 72t308 -74t95 -264v-219h-645v-150q0 -104 69 -148t214 -44q131 0 324 49v-142q-186 -41 -355 -40q-260 0 -370 116q-29 -117 -365 -116 q-215 0 -292 60t-77 247zM283 289q0 -111 33.5 -152t162.5 -41q57 0 88 1t76 8.5t67.5 19.5t40 36.5t17.5 61.5v248h-295q-127 0 -158.5 -32.5t-31.5 -149.5zM954 575h461v156q0 92 -50 125t-177 33q-121 0 -177.5 -33t-56.5 -125v-156z" />
<glyph unicode="&#x4d6;" d="M172 0v1329h893v-139h-694v-434h626v-140h-626v-477h714v-139h-913zM352 1731h111q12 -139 131 -139.5t131 139.5h111q-4 -119 -67.5 -190t-174.5 -71t-174.5 71t-67.5 190z" />
<glyph unicode="&#x4d7;" horiz-adv-x="1095" d="M123 283v391q0 182 104.5 260t333.5 78q215 0 314.5 -75t99.5 -263v-219h-666v-150q0 -104 75 -148t226 -44q133 0 326 49v-142q-193 -41 -383.5 -40.5t-310 73t-119.5 230.5zM305 1393h111q12 -139 131 -139.5t131 139.5h110q-4 -119 -67.5 -189.5t-174 -70.5t-174 70.5 t-67.5 189.5zM309 575h482v156q0 90 -54.5 124t-179.5 34q-127 0 -187.5 -32t-60.5 -126v-156z" />
<glyph unicode="&#x4d8;" horiz-adv-x="1394" d="M127 428v313h940v224q0 256 -457 256q-170 0 -432 -66v143q258 53 510 54q254 0 413 -96.5t159 -305.5v-522q0 -244 -139.5 -346t-444.5 -102q-285 0 -417 98t-132 350zM319 324q0 -213 363 -213q178 0 281.5 46t103.5 167v276h-748v-276z" />
<glyph unicode="&#x4d9;" horiz-adv-x="0" />
<glyph unicode="&#x4da;" horiz-adv-x="1394" d="M127 428v313h940v224q0 256 -457 256q-170 0 -432 -66v143q258 53 510 54q254 0 413 -96.5t159 -305.5v-522q0 -244 -139.5 -346t-444.5 -102q-285 0 -417 98t-132 350zM319 324q0 -213 363 -213q178 0 281.5 46t103.5 167v276h-748v-276zM430 1495v193h184v-193h-184z M778 1495v193h185v-193h-185z" />
<glyph unicode="&#x4db;" horiz-adv-x="1095" d="M123 317v220h665v149q0 104 -74.5 148.5t-226.5 44.5q-133 0 -325 -50v142q193 41 383 41t310 -73t120 -230v-392q0 -182 -104.5 -259.5t-333.5 -77.5q-215 0 -314.5 74.5t-99.5 262.5zM281 1157v193h184v-193h-184zM307 260q0 -90 54.5 -124t179.5 -34q127 0 187 32 t60 126v156h-481v-156zM629 1157v193h184v-193h-184z" />
<glyph unicode="&#x4dc;" horiz-adv-x="1953" d="M-12 0l372 414q225 250 302 268q-57 14 -95.5 48t-77.5 101l-129 213q-47 78 -87 112t-91 34h-104v139h92q145 0 197.5 -30.5t136.5 -159.5l182 -285q41 -66 72 -83t119 -17v575h198v-575q88 0 119 17t72 83l182 285q84 129 136 159.5t198 30.5h92v-139h-105 q-51 0 -91 -34t-87 -112l-129 -213q-39 -68 -76.5 -101.5t-95.5 -47.5q76 -18 301 -268l373 -414h-235l-377 414q-121 131 -175.5 166.5t-101.5 35.5v-616h-198v616q-47 0 -101.5 -35.5t-175.5 -166.5l-377 -414h-235zM711 1495v193h184v-193h-184zM1059 1495v193h184v-193 h-184z" />
<glyph unicode="&#x4dd;" horiz-adv-x="1548" d="M0 0l276 307q168 186 226 201q-74 18 -127 110l-99 160q-63 109 -131 109h-79v104h102q111 0 150.5 -22.5t99.5 -118.5l133 -215q31 -49 52 -62.5t87 -13.5v432h170v-432q66 0 87.5 13.5t51.5 62.5l134 215q59 96 99 118.5t150 22.5h101v-104h-80q-68 0 -131 -109 l-98 -160q-53 -92 -127 -110q57 -14 225 -201l276 -307h-217l-270 307q-88 98 -127 125t-74 27v-459h-170v459q-35 0 -73.5 -26.5t-127.5 -125.5l-270 -307h-219zM508 1157v193h184v-193h-184zM856 1157v193h184v-193h-184z" />
<glyph unicode="&#x4de;" d="M111 18v152q248 -51 407 -51q61 0 101 3t96.5 16.5t86 47t29.5 86.5v224q0 127 -274 127h-276v127h241q276 0 277 131v223q0 106 -267 106q-88 0 -239.5 -11t-155.5 -11v139q250 16 393 16q223 0 339 -49t116 -174v-248q0 -68 -53 -107.5t-129 -51.5v-8q47 -8 79.5 -17.5 t68.5 -28t54.5 -51.5t18.5 -78v-266q0 -74 -31.5 -128t-77 -83.5t-115 -47t-128 -21.5t-133.5 -4q-207 0 -428 38zM293 1495v193h184v-193h-184zM641 1495v193h184v-193h-184z" />
<glyph unicode="&#x4df;" horiz-adv-x="1017" d="M76 14v146q219 -45 364 -45q59 0 95 3t84.5 16t72 47t23.5 87v64q0 43 -23.5 70.5t-67.5 39t-79 14.5t-84 3h-215v127h180q49 0 83 3t79 14t69.5 40t24.5 74v61q0 106 -246 107h-33q-160 0 -301 -25v133q154 18 332 19q147 0 230 -15q102 -16 153 -63t51 -146v-79 q0 -68 -55 -109t-131 -53v-4q225 -35 225 -187v-102q0 -152 -114.5 -213t-350.5 -61q-137 0 -366 34z" />
<glyph unicode="&#x4e0;" horiz-adv-x="1236" d="M78 375l168 43q25 -129 117 -218t206 -89q131 0 216 75.5t85 194.5q0 121 -82.5 194.5t-234.5 73.5h-78v139l391 404h-743v137h952v-137l-393 -412q170 -23 271.5 -128t101.5 -265q0 -190 -132 -301t-354 -111q-377 0 -491 400z" />
<glyph unicode="&#x4e1;" horiz-adv-x="1116" d="M100 -6l176 14q20 -123 87 -192.5t174 -69.5q125 0 205.5 95.5t80.5 240.5q0 143 -85 226t-230 83h-86v146l311 325q-139 -6 -188 -6h-402v137h805v-110l-342 -351q174 -8 286 -131t112 -305q0 -207 -132.5 -347t-334.5 -140q-180 0 -300 103.5t-137 281.5z" />
<glyph unicode="&#x4e2;" horiz-adv-x="1480" d="M174 0v1329h182v-1098l715 1098h240v-1329h-183v1116l-714 -1116h-240zM516 1546v121h447v-121h-447z" />
<glyph unicode="&#x4e3;" horiz-adv-x="1224" d="M160 0v991h174v-801l491 801h240v-991h-174v819l-492 -819h-239zM399 1208v121h447v-121h-447z" />
<glyph unicode="&#x4e4;" horiz-adv-x="1480" d="M174 0v1329h182v-1098l715 1098h240v-1329h-183v1116l-714 -1116h-240zM473 1495v193h184v-193h-184zM821 1495v193h185v-193h-185z" />
<glyph unicode="&#x4e5;" horiz-adv-x="1224" d="M160 0v991h174v-801l491 801h240v-991h-174v819l-492 -819h-239zM356 1157v193h185v-193h-185zM705 1157v193h184v-193h-184z" />
<glyph unicode="&#x4e6;" horiz-adv-x="1390" d="M135 340v629q0 381 557 381q563 0 563 -379v-631q0 -109 -52 -184.5t-142 -111.5t-178 -50t-191 -14q-557 0 -557 360zM326 342q0 -229 370 -229q367 0 367 229v633q0 246 -369 246q-78 0 -137 -9.5t-114.5 -35t-86 -75.5t-30.5 -126v-633zM428 1495v193h184v-193h-184z M776 1495v193h185v-193h-185z" />
<glyph unicode="&#x4e7;" horiz-adv-x="1163" d="M123 313v344q0 98 23.5 166t57.5 105t99.5 56.5t121.5 23.5t154.5 4t155 -4t122 -23.5t99 -56.5t57 -105t23.5 -166v-344q0 -92 -22.5 -155.5t-57 -98t-99 -53t-123 -22.5t-154.5 -4q-123 0 -192 8t-137.5 39.5t-98 101.5t-29.5 184zM311 287q0 -66 14.5 -105t53.5 -56 t80 -21.5t120.5 -4.5t120.5 4.5t80 21.5t53.5 56t14.5 105v401q0 137 -55.5 170t-213 33t-213 -33t-55.5 -170v-401zM315 1157v193h185v-193h-185zM664 1157v193h184v-193h-184z" />
<glyph unicode="&#x4e8;" horiz-adv-x="1390" d="M135 340v629q0 381 557 381q563 0 563 -379v-631q0 -109 -52 -184.5t-142 -111.5t-178 -50t-191 -14q-557 0 -557 360zM326 342q0 -229 370 -229q367 0 367 229v274h-737v-274zM326 756h737v219q0 246 -369 246q-78 0 -137 -9.5t-114.5 -35t-86 -75.5t-30.5 -126v-219z " />
<glyph unicode="&#x4e9;" horiz-adv-x="1163" d="M123 313v344q0 98 23.5 166t57.5 105t99.5 56.5t121.5 23.5t154.5 4t155 -4t122 -23.5t99 -56.5t57 -105t23.5 -166v-344q0 -92 -22.5 -155.5t-57 -98t-99 -53t-123 -22.5t-154.5 -4q-123 0 -192 8t-137.5 39.5t-98 101.5t-29.5 184zM311 287q0 -66 14.5 -105t53.5 -56 t80 -21.5t120.5 -4.5t120.5 4.5t80 21.5t53.5 56t14.5 105v141h-537v-141zM311 559h537v129q0 137 -55.5 170t-213 33t-213 -33t-55.5 -170v-129z" />
<glyph unicode="&#x4ea;" horiz-adv-x="1390" d="M135 340v629q0 381 557 381q563 0 563 -379v-631q0 -109 -52 -184.5t-142 -111.5t-178 -50t-191 -14q-557 0 -557 360zM326 342q0 -229 370 -229q367 0 367 229v274h-737v-274zM326 756h737v219q0 246 -369 246q-78 0 -137 -9.5t-114.5 -35t-86 -75.5t-30.5 -126v-219z M428 1495v193h184v-193h-184zM776 1495v193h185v-193h-185z" />
<glyph unicode="&#x4eb;" horiz-adv-x="1163" d="M123 313v344q0 98 23.5 166t57.5 105t99.5 56.5t121.5 23.5t154.5 4t155 -4t122 -23.5t99 -56.5t57 -105t23.5 -166v-344q0 -92 -22.5 -155.5t-57 -98t-99 -53t-123 -22.5t-154.5 -4q-123 0 -192 8t-137.5 39.5t-98 101.5t-29.5 184zM311 287q0 -66 14.5 -105t53.5 -56 t80 -21.5t120.5 -4.5t120.5 4.5t80 21.5t53.5 56t14.5 105v141h-537v-141zM311 559h537v129q0 137 -55.5 170t-213 33t-213 -33t-55.5 -170v-129zM315 1157v193h185v-193h-185zM664 1157v193h184v-193h-184z" />
<glyph unicode="&#x4ec;" horiz-adv-x="1153" d="M90 18v152q197 -49 361 -49q381 0 380 229v266h-675v138h675v219q0 76 -30.5 126t-88 73.5t-116.5 32.5t-137 9q-164 0 -361 -49v148q178 39 365 39q559 0 559 -381v-631q0 -360 -559 -360q-195 -1 -373 38zM309 1495v193h185v-193h-185zM657 1495v193h185v-193h-185z " />
<glyph unicode="&#x4ed;" horiz-adv-x="950" d="M74 8v139q154 -39 299 -38q164 0 215 33.5t51 142.5v149h-500v139h500v121q0 127 -44 160t-202 33q-145 0 -305 -41v135q141 31 283 31q78 0 124 -3t106.5 -12.5t95 -32t67.5 -59.5t48 -96t15 -141v-365q0 -92 -24.5 -154.5t-58 -95.5t-98 -50t-115 -20t-140.5 -3 q-182 -1 -317 28zM209 1157v193h184v-193h-184zM557 1157v193h184v-193h-184z" />
<glyph unicode="&#x4ee;" horiz-adv-x="1099" d="M12 1329h221l342 -737l312 737h200l-473 -1093q-53 -127 -133 -191.5t-223 -64.5q-78 0 -172 20v143q66 -14 125 -14q88 0 138 40t91 132l41 94zM326 1546v121h446v-121h-446z" />
<glyph unicode="&#x4ef;" horiz-adv-x="942" d="M12 991h201l276 -809h5l249 809h187l-492 -1397h-192l149 392zM248 1208v121h446v-121h-446z" />
<glyph unicode="&#x4f0;" horiz-adv-x="1099" d="M12 1329h221l342 -737l312 737h200l-473 -1093q-53 -127 -133 -191.5t-223 -64.5q-78 0 -172 20v143q66 -14 125 -14q88 0 138 40t91 132l41 94zM283 1495v193h184v-193h-184zM631 1495v193h184v-193h-184z" />
<glyph unicode="&#x4f1;" horiz-adv-x="942" d="M12 991h201l276 -809h5l249 809h187l-492 -1397h-192l149 392zM205 1157v193h184v-193h-184zM553 1157v193h184v-193h-184z" />
<glyph unicode="&#x4f2;" horiz-adv-x="1099" d="M12 1329h221l342 -737l312 737h200l-473 -1093q-53 -127 -133 -191.5t-223 -64.5q-78 0 -172 20v143q66 -14 125 -14q88 0 138 40t91 132l41 94zM338 1468l143 263h156l-143 -263h-156zM598 1468l143 263h156l-143 -263h-156z" />
<glyph unicode="&#x4f3;" horiz-adv-x="942" d="M12 991h201l276 -809h5l249 809h187l-492 -1397h-192l149 392zM193 1130l143 263h156l-144 -263h-155zM453 1130l143 263h156l-144 -263h-155z" />
<glyph unicode="&#x4f4;" horiz-adv-x="1249" d="M141 754v575h197v-563q0 -164 242 -164q174 0 236.5 39t62.5 125v563h198v-1329h-198v610q-16 -76 -115.5 -108.5t-237.5 -32.5q-385 0 -385 285zM358 1495v193h185v-193h-185zM707 1495v193h184v-193h-184z" />
<glyph unicode="&#x4f5;" horiz-adv-x="1173" d="M160 598v393h184v-383q0 -37 6 -61.5t25.5 -50t65.5 -39t116 -13.5q162 0 217 35t55 129v383h185v-991h-180v455q-29 -141 -330 -142q-197 0 -270.5 71t-73.5 214zM319 1157v193h185v-193h-185zM668 1157v193h184v-193h-184z" />
<glyph unicode="&#x4f6;" horiz-adv-x="1003" d="M172 0v1329h770v-139h-571v-1053h131v-506h-164v369h-166z" />
<glyph unicode="&#x4f7;" horiz-adv-x="880" d="M172 0v991h647v-135h-463v-719h125v-506h-164v369h-145z" />
<glyph unicode="&#x4f8;" horiz-adv-x="1650" d="M172 0v1329h199v-573h198q100 0 169 -5.5t137.5 -21.5t109.5 -45t65.5 -79t24.5 -120v-196q0 -289 -469 -289h-434zM369 135h223q53 0 89 3t89 17.5t82 50.5t29 91v166q0 96 -62.5 127t-222.5 31h-227v-486zM559 1495v193h184v-193h-184zM907 1495v193h185v-193h-185z M1280 0v1329h199v-1329h-199z" />
<glyph unicode="&#x4f9;" horiz-adv-x="1484" d="M172 0v991h188v-358h275q182 0 264 -43t82 -170v-205q-1 -215 -363 -215h-446zM358 119h248q37 0 62.5 3t60.5 12t53.5 37t18.5 69v125q0 86 -36 115.5t-155 29.5h-252v-391zM475 1157v193h184v-193h-184zM823 1157v193h185v-193h-185zM1139 0v991h184v-991h-184z" />
<glyph unicode="&#x2000;" horiz-adv-x="865" />
<glyph unicode="&#x2001;" horiz-adv-x="1731" />
<glyph unicode="&#x2002;" horiz-adv-x="865" />
<glyph unicode="&#x2003;" horiz-adv-x="1731" />
<glyph unicode="&#x2004;" horiz-adv-x="577" />
<glyph unicode="&#x2005;" horiz-adv-x="432" />
<glyph unicode="&#x2006;" horiz-adv-x="288" />
<glyph unicode="&#x2007;" horiz-adv-x="288" />
<glyph unicode="&#x2008;" horiz-adv-x="216" />
<glyph unicode="&#x2009;" horiz-adv-x="346" />
<glyph unicode="&#x200a;" horiz-adv-x="96" />
<glyph unicode="&#x2010;" horiz-adv-x="733" d="M82 512v147h569v-147h-569z" />
<glyph unicode="&#x2011;" horiz-adv-x="733" d="M82 512v147h569v-147h-569z" />
<glyph unicode="&#x2012;" horiz-adv-x="733" d="M82 512v147h569v-147h-569z" />
<glyph unicode="&#x2013;" d="M145 520v146h897v-146h-897z" />
<glyph unicode="&#x2014;" horiz-adv-x="1675" d="M82 520v146h1511v-146h-1511z" />
<glyph unicode="&#x2018;" horiz-adv-x="524" d="M92 879l193 450h118l-94 -450h-217z" />
<glyph unicode="&#x2019;" horiz-adv-x="524" d="M121 879l94 450h217l-192 -450h-119z" />
<glyph unicode="&#x201a;" horiz-adv-x="524" d="M80 -229l94 450h217l-192 -450h-119z" />
<glyph unicode="&#x201c;" horiz-adv-x="907" d="M131 879l195 450h118l-94 -450h-219zM516 879l195 450h118l-94 -450h-219z" />
<glyph unicode="&#x201d;" horiz-adv-x="907" d="M80 879l94 450h217l-192 -450h-119zM463 879l94 450h219l-194 -450h-119z" />
<glyph unicode="&#x201e;" horiz-adv-x="907" d="M80 -229l94 450h217l-192 -450h-119zM463 -229l94 450h219l-194 -450h-119z" />
<glyph unicode="&#x2022;" horiz-adv-x="980" d="M164 592q0 135 95 230.5t230 95.5q137 0 232.5 -95.5t95.5 -230.5t-95 -231.5t-230 -96.5q-137 0 -232.5 96.5t-95.5 231.5z" />
<glyph unicode="&#x2026;" horiz-adv-x="1449" d="M143 0v221h238v-221h-238zM606 0v221h238v-221h-238zM1069 0v221h238v-221h-238z" />
<glyph unicode="&#x202f;" horiz-adv-x="346" />
<glyph unicode="&#x2039;" horiz-adv-x="524" d="M82 537l205 393h155l-188 -393l188 -394h-155z" />
<glyph unicode="&#x203a;" horiz-adv-x="524" d="M82 143l188 394l-188 393h156l204 -393l-204 -394h-156z" />
<glyph unicode="&#x205f;" horiz-adv-x="432" />
<glyph unicode="&#x20ac;" d="M53 436v146h191v145h-191v145h191v58q0 381 559 381q162 0 289 -25l-37 -137q-143 25 -248 25q-61 0 -110.5 -5.5t-101.5 -20.5t-87 -41t-56.5 -70t-21.5 -105v-60h557l-39 -145h-518v-145h457l-39 -146h-418v-86q0 -229 385 -229q152 0 320 39v-152q-160 -29 -332 -28 q-559 0 -559 360v96h-191z" />
<glyph unicode="&#x2122;" horiz-adv-x="1284" d="M16 1235v94h484v-94h-178v-449h-125v449h-181zM567 786v543h164l158 -393l149 393h158v-543h-115v365l-143 -365h-104l-150 369v-369h-117z" />
<glyph unicode="&#x25fc;" horiz-adv-x="993" d="M0 0v993h993v-993h-993z" />
</font>
</defs>
</svg>
